<?xml version="1.0" encoding="UTF-8"?>
<svg width="375px" height="667px" viewBox="0 0 375 667" version="1.1" xmlns="http://www.w3.org/2000/svg" xmlns:xlink="http://www.w3.org/1999/xlink">
    <!-- Generator: Sketch 61.2 (89653) - https://sketch.com -->
    <title>bgnum5</title>
    <desc>Created with Sketch.</desc>
    <defs>
        <linearGradient x1="50%" y1="0%" x2="50%" y2="100%" id="linearGradient-1">
            <stop stop-color="#F7F6F2" offset="0%"></stop>
            <stop stop-color="#EDEAE1" offset="100%"></stop>
        </linearGradient>
    </defs>
    <g id="bgnum5" stroke="none" stroke-width="1" fill="none" fill-rule="evenodd">
        <rect id="Rectangle" fill="url(#linearGradient-1)" x="0" y="0" width="375" height="667"></rect>
        <g id="Group-Copy-3" transform="translate(30.000000, 460.500000) rotate(60.000000) translate(-30.000000, -460.500000) translate(2.000000, 433.000000)">
            <path d="M24.8042353,54.091721 C17.8255204,31.525893 24.2504744,15.1925597 44.0790974,5.09172097" id="Path-80" stroke="#979797"></path>
            <line x1="23.0790974" y1="38.091721" x2="26.0790974" y2="35.091721" id="Path-81" stroke="#979797"></line>
            <path d="M23.9696793,29.3401064 C24.6530007,23.0059808 22.1357888,17.256519 16.4180436,12.091721 C16.3920816,12.1787772 13.7728215,22.5971719 23.5193934,30.0673171 C23.485885,30.1738755 23.6359803,29.9314719 23.9696793,29.3401064 Z" id="Path-82" fill="#667816"></path>
            <path d="M28.1643949,20.2249094 C28.5887642,15.6685059 27.0586232,11.5356928 23.5739718,7.82646998 C23.5580234,7.8891091 21.9471579,15.3849375 27.888678,20.7483803 C27.8681005,20.8250534 27.9600061,20.6505631 28.1643949,20.2249094 Z" id="Path-82-Copy-3" fill="#667816" transform="translate(25.798360, 14.296202) rotate(14.000000) translate(-25.798360, -14.296202) "></path>
            <path d="M37.3083388,12.4702936 C37.7367903,8.47721639 36.2130118,4.85838963 32.7370034,1.6138133 C32.721013,1.6687241 31.1046996,8.23925759 37.0324682,12.9294048 C37.0118407,12.9966198 37.1037976,12.8435827 37.3083388,12.4702936 Z" id="Path-82-Copy-7" fill="#667816" transform="translate(34.951452, 7.279301) rotate(31.000000) translate(-34.951452, -7.279301) "></path>
            <path d="M35.6856347,25.3828474 C36.0985499,20.7983776 34.5700775,16.6363999 31.1002176,12.8969143 C31.0844904,12.9599197 29.4982153,20.5001537 35.4126628,25.9091034 C35.3923627,25.9862228 35.4833533,25.8108041 35.6856347,25.3828474 Z" id="Path-82-Copy-4" fill="#667816" transform="translate(33.323477, 19.411840) rotate(93.000000) translate(-33.323477, -19.411840) "></path>
            <path d="M42.1999204,18.9122592 C42.6128356,14.3277893 41.0843632,10.1658116 37.6145033,6.4263261 C37.5987761,6.48933149 36.0125011,14.0295654 41.9269485,19.4385152 C41.9066484,19.5156346 41.9976391,19.3402159 42.1999204,18.9122592 Z" id="Path-82-Copy-5" fill="#667816" transform="translate(39.837762, 12.941252) rotate(93.000000) translate(-39.837762, -12.941252) "></path>
            <path d="M51.9520477,10.8263478 C52.4977335,6.24432342 50.4543959,2.0812145 45.8220349,-1.662979 C45.8011271,-1.60002492 43.6936445,5.93458956 51.5885307,11.3519259 C51.5615391,11.4289806 51.6827114,11.2537879 51.9520477,10.8263478 Z" id="Path-82-Copy-6" fill="#667816" transform="translate(48.794943, 4.853300) rotate(104.000000) translate(-48.794943, -4.853300) "></path>
            <path d="M35.8538031,36.9010239 C36.6777286,31.7761756 33.5958739,27.1168155 26.6082391,22.9229434 C26.5766883,22.9933394 23.3962231,31.4191093 35.3053307,37.4885041 C35.2645999,37.5746659 35.447424,37.3788391 35.8538031,36.9010239 Z" id="Path-82-Copy" fill="#667816" transform="translate(31.092009, 30.215596) scale(-1, 1) rotate(-18.000000) translate(-31.092009, -30.215596) "></path>
            <path d="M19.3064636,41.5814384 C20.4291949,33.5616193 16.3693578,26.2926107 7.12695227,19.7744126 C7.08469706,19.8846927 2.81737589,33.0807513 18.5756365,42.5034313 C18.5211142,42.638422 18.7647233,42.331091 19.3064636,41.5814384 Z" id="Path-82-Copy-2" fill="#667816" transform="translate(13.029176, 31.154371) scale(-1, 1) rotate(71.000000) translate(-13.029176, -31.154371) "></path>
        </g>
        <g id="Group-Copy-9" transform="translate(266.000000, 177.500000) rotate(-20.000000) translate(-266.000000, -177.500000) translate(238.000000, 150.000000)">
            <path d="M24.8042353,54.091721 C17.8255204,31.525893 24.2504744,15.1925597 44.0790974,5.09172097" id="Path-80" stroke="#979797"></path>
            <line x1="23.0790974" y1="38.091721" x2="26.0790974" y2="35.091721" id="Path-81" stroke="#979797"></line>
            <path d="M23.9696793,29.3401064 C24.6530007,23.0059808 22.1357888,17.256519 16.4180436,12.091721 C16.3920816,12.1787772 13.7728215,22.5971719 23.5193934,30.0673171 C23.485885,30.1738755 23.6359803,29.9314719 23.9696793,29.3401064 Z" id="Path-82" fill="#667816"></path>
            <path d="M28.1643949,20.2249094 C28.5887642,15.6685059 27.0586232,11.5356928 23.5739718,7.82646998 C23.5580234,7.8891091 21.9471579,15.3849375 27.888678,20.7483803 C27.8681005,20.8250534 27.9600061,20.6505631 28.1643949,20.2249094 Z" id="Path-82-Copy-3" fill="#667816" transform="translate(25.798360, 14.296202) rotate(14.000000) translate(-25.798360, -14.296202) "></path>
            <path d="M37.3083388,12.4702936 C37.7367903,8.47721639 36.2130118,4.85838963 32.7370034,1.6138133 C32.721013,1.6687241 31.1046996,8.23925759 37.0324682,12.9294048 C37.0118407,12.9966198 37.1037976,12.8435827 37.3083388,12.4702936 Z" id="Path-82-Copy-7" fill="#667816" transform="translate(34.951452, 7.279301) rotate(31.000000) translate(-34.951452, -7.279301) "></path>
            <path d="M35.6856347,25.3828474 C36.0985499,20.7983776 34.5700775,16.6363999 31.1002176,12.8969143 C31.0844904,12.9599197 29.4982153,20.5001537 35.4126628,25.9091034 C35.3923627,25.9862228 35.4833533,25.8108041 35.6856347,25.3828474 Z" id="Path-82-Copy-4" fill="#667816" transform="translate(33.323477, 19.411840) rotate(93.000000) translate(-33.323477, -19.411840) "></path>
            <path d="M42.1999204,18.9122592 C42.6128356,14.3277893 41.0843632,10.1658116 37.6145033,6.4263261 C37.5987761,6.48933149 36.0125011,14.0295654 41.9269485,19.4385152 C41.9066484,19.5156346 41.9976391,19.3402159 42.1999204,18.9122592 Z" id="Path-82-Copy-5" fill="#667816" transform="translate(39.837762, 12.941252) rotate(93.000000) translate(-39.837762, -12.941252) "></path>
            <path d="M51.9520477,10.8263478 C52.4977335,6.24432342 50.4543959,2.0812145 45.8220349,-1.662979 C45.8011271,-1.60002492 43.6936445,5.93458956 51.5885307,11.3519259 C51.5615391,11.4289806 51.6827114,11.2537879 51.9520477,10.8263478 Z" id="Path-82-Copy-6" fill="#667816" transform="translate(48.794943, 4.853300) rotate(104.000000) translate(-48.794943, -4.853300) "></path>
            <path d="M35.8538031,36.9010239 C36.6777286,31.7761756 33.5958739,27.1168155 26.6082391,22.9229434 C26.5766883,22.9933394 23.3962231,31.4191093 35.3053307,37.4885041 C35.2645999,37.5746659 35.447424,37.3788391 35.8538031,36.9010239 Z" id="Path-82-Copy" fill="#667816" transform="translate(31.092009, 30.215596) scale(-1, 1) rotate(-18.000000) translate(-31.092009, -30.215596) "></path>
            <path d="M19.3064636,41.5814384 C20.4291949,33.5616193 16.3693578,26.2926107 7.12695227,19.7744126 C7.08469706,19.8846927 2.81737589,33.0807513 18.5756365,42.5034313 C18.5211142,42.638422 18.7647233,42.331091 19.3064636,41.5814384 Z" id="Path-82-Copy-2" fill="#667816" transform="translate(13.029176, 31.154371) scale(-1, 1) rotate(71.000000) translate(-13.029176, -31.154371) "></path>
        </g>
        <g id="Group-Copy-11" transform="translate(93.000000, 290.500000) scale(-1, -1) rotate(60.000000) translate(-93.000000, -290.500000) translate(65.000000, 263.000000)">
            <path d="M24.8042353,54.091721 C17.8255204,31.525893 24.2504744,15.1925597 44.0790974,5.09172097" id="Path-80" stroke="#979797"></path>
            <line x1="23.0790974" y1="38.091721" x2="26.0790974" y2="35.091721" id="Path-81" stroke="#979797"></line>
            <path d="M23.9696793,29.3401064 C24.6530007,23.0059808 22.1357888,17.256519 16.4180436,12.091721 C16.3920816,12.1787772 13.7728215,22.5971719 23.5193934,30.0673171 C23.485885,30.1738755 23.6359803,29.9314719 23.9696793,29.3401064 Z" id="Path-82" fill="#667816"></path>
            <path d="M28.1643949,20.2249094 C28.5887642,15.6685059 27.0586232,11.5356928 23.5739718,7.82646998 C23.5580234,7.8891091 21.9471579,15.3849375 27.888678,20.7483803 C27.8681005,20.8250534 27.9600061,20.6505631 28.1643949,20.2249094 Z" id="Path-82-Copy-3" fill="#667816" transform="translate(25.798360, 14.296202) rotate(14.000000) translate(-25.798360, -14.296202) "></path>
            <path d="M37.3083388,12.4702936 C37.7367903,8.47721639 36.2130118,4.85838963 32.7370034,1.6138133 C32.721013,1.6687241 31.1046996,8.23925759 37.0324682,12.9294048 C37.0118407,12.9966198 37.1037976,12.8435827 37.3083388,12.4702936 Z" id="Path-82-Copy-7" fill="#667816" transform="translate(34.951452, 7.279301) rotate(31.000000) translate(-34.951452, -7.279301) "></path>
            <path d="M35.6856347,25.3828474 C36.0985499,20.7983776 34.5700775,16.6363999 31.1002176,12.8969143 C31.0844904,12.9599197 29.4982153,20.5001537 35.4126628,25.9091034 C35.3923627,25.9862228 35.4833533,25.8108041 35.6856347,25.3828474 Z" id="Path-82-Copy-4" fill="#667816" transform="translate(33.323477, 19.411840) rotate(93.000000) translate(-33.323477, -19.411840) "></path>
            <path d="M42.1999204,18.9122592 C42.6128356,14.3277893 41.0843632,10.1658116 37.6145033,6.4263261 C37.5987761,6.48933149 36.0125011,14.0295654 41.9269485,19.4385152 C41.9066484,19.5156346 41.9976391,19.3402159 42.1999204,18.9122592 Z" id="Path-82-Copy-5" fill="#667816" transform="translate(39.837762, 12.941252) rotate(93.000000) translate(-39.837762, -12.941252) "></path>
            <path d="M51.9520477,10.8263478 C52.4977335,6.24432342 50.4543959,2.0812145 45.8220349,-1.662979 C45.8011271,-1.60002492 43.6936445,5.93458956 51.5885307,11.3519259 C51.5615391,11.4289806 51.6827114,11.2537879 51.9520477,10.8263478 Z" id="Path-82-Copy-6" fill="#667816" transform="translate(48.794943, 4.853300) rotate(104.000000) translate(-48.794943, -4.853300) "></path>
            <path d="M35.8538031,36.9010239 C36.6777286,31.7761756 33.5958739,27.1168155 26.6082391,22.9229434 C26.5766883,22.9933394 23.3962231,31.4191093 35.3053307,37.4885041 C35.2645999,37.5746659 35.447424,37.3788391 35.8538031,36.9010239 Z" id="Path-82-Copy" fill="#667816" transform="translate(31.092009, 30.215596) scale(-1, 1) rotate(-18.000000) translate(-31.092009, -30.215596) "></path>
            <path d="M19.3064636,41.5814384 C20.4291949,33.5616193 16.3693578,26.2926107 7.12695227,19.7744126 C7.08469706,19.8846927 2.81737589,33.0807513 18.5756365,42.5034313 C18.5211142,42.638422 18.7647233,42.331091 19.3064636,41.5814384 Z" id="Path-82-Copy-2" fill="#667816" transform="translate(13.029176, 31.154371) scale(-1, 1) rotate(71.000000) translate(-13.029176, -31.154371) "></path>
        </g>
        <g id="Group-Copy-12" transform="translate(358.000000, 27.500000) scale(-1, 1) rotate(60.000000) translate(-358.000000, -27.500000) translate(330.000000, 0.000000)">
            <path d="M24.8042353,54.091721 C17.8255204,31.525893 24.2504744,15.1925597 44.0790974,5.09172097" id="Path-80" stroke="#979797"></path>
            <line x1="23.0790974" y1="38.091721" x2="26.0790974" y2="35.091721" id="Path-81" stroke="#979797"></line>
            <path d="M23.9696793,29.3401064 C24.6530007,23.0059808 22.1357888,17.256519 16.4180436,12.091721 C16.3920816,12.1787772 13.7728215,22.5971719 23.5193934,30.0673171 C23.485885,30.1738755 23.6359803,29.9314719 23.9696793,29.3401064 Z" id="Path-82" fill="#667816"></path>
            <path d="M28.1643949,20.2249094 C28.5887642,15.6685059 27.0586232,11.5356928 23.5739718,7.82646998 C23.5580234,7.8891091 21.9471579,15.3849375 27.888678,20.7483803 C27.8681005,20.8250534 27.9600061,20.6505631 28.1643949,20.2249094 Z" id="Path-82-Copy-3" fill="#667816" transform="translate(25.798360, 14.296202) rotate(14.000000) translate(-25.798360, -14.296202) "></path>
            <path d="M37.3083388,12.4702936 C37.7367903,8.47721639 36.2130118,4.85838963 32.7370034,1.6138133 C32.721013,1.6687241 31.1046996,8.23925759 37.0324682,12.9294048 C37.0118407,12.9966198 37.1037976,12.8435827 37.3083388,12.4702936 Z" id="Path-82-Copy-7" fill="#667816" transform="translate(34.951452, 7.279301) rotate(31.000000) translate(-34.951452, -7.279301) "></path>
            <path d="M35.6856347,25.3828474 C36.0985499,20.7983776 34.5700775,16.6363999 31.1002176,12.8969143 C31.0844904,12.9599197 29.4982153,20.5001537 35.4126628,25.9091034 C35.3923627,25.9862228 35.4833533,25.8108041 35.6856347,25.3828474 Z" id="Path-82-Copy-4" fill="#667816" transform="translate(33.323477, 19.411840) rotate(93.000000) translate(-33.323477, -19.411840) "></path>
            <path d="M42.1999204,18.9122592 C42.6128356,14.3277893 41.0843632,10.1658116 37.6145033,6.4263261 C37.5987761,6.48933149 36.0125011,14.0295654 41.9269485,19.4385152 C41.9066484,19.5156346 41.9976391,19.3402159 42.1999204,18.9122592 Z" id="Path-82-Copy-5" fill="#667816" transform="translate(39.837762, 12.941252) rotate(93.000000) translate(-39.837762, -12.941252) "></path>
            <path d="M51.9520477,10.8263478 C52.4977335,6.24432342 50.4543959,2.0812145 45.8220349,-1.662979 C45.8011271,-1.60002492 43.6936445,5.93458956 51.5885307,11.3519259 C51.5615391,11.4289806 51.6827114,11.2537879 51.9520477,10.8263478 Z" id="Path-82-Copy-6" fill="#667816" transform="translate(48.794943, 4.853300) rotate(104.000000) translate(-48.794943, -4.853300) "></path>
            <path d="M35.8538031,36.9010239 C36.6777286,31.7761756 33.5958739,27.1168155 26.6082391,22.9229434 C26.5766883,22.9933394 23.3962231,31.4191093 35.3053307,37.4885041 C35.2645999,37.5746659 35.447424,37.3788391 35.8538031,36.9010239 Z" id="Path-82-Copy" fill="#667816" transform="translate(31.092009, 30.215596) scale(-1, 1) rotate(-18.000000) translate(-31.092009, -30.215596) "></path>
            <path d="M19.3064636,41.5814384 C20.4291949,33.5616193 16.3693578,26.2926107 7.12695227,19.7744126 C7.08469706,19.8846927 2.81737589,33.0807513 18.5756365,42.5034313 C18.5211142,42.638422 18.7647233,42.331091 19.3064636,41.5814384 Z" id="Path-82-Copy-2" fill="#667816" transform="translate(13.029176, 31.154371) scale(-1, 1) rotate(71.000000) translate(-13.029176, -31.154371) "></path>
        </g>
        <g id="Group-Copy-13" transform="translate(0.000000, 27.500000) rotate(60.000000) translate(-0.000000, -27.500000) translate(-28.000000, 0.000000)">
            <path d="M24.8042353,54.091721 C17.8255204,31.525893 24.2504744,15.1925597 44.0790974,5.09172097" id="Path-80" stroke="#979797"></path>
            <path d="M23.9696793,29.3401064 C24.6530007,23.0059808 22.1357888,17.256519 16.4180436,12.091721 C16.3920816,12.1787772 13.7728215,22.5971719 23.5193934,30.0673171 C23.485885,30.1738755 23.6359803,29.9314719 23.9696793,29.3401064 Z" id="Path-82" fill="#667816"></path>
            <path d="M28.1643949,20.2249094 C28.5887642,15.6685059 27.0586232,11.5356928 23.5739718,7.82646998 C23.5580234,7.8891091 21.9471579,15.3849375 27.888678,20.7483803 C27.8681005,20.8250534 27.9600061,20.6505631 28.1643949,20.2249094 Z" id="Path-82-Copy-3" fill="#667816" transform="translate(25.798360, 14.296202) rotate(14.000000) translate(-25.798360, -14.296202) "></path>
            <path d="M37.3083388,12.4702936 C37.7367903,8.47721639 36.2130118,4.85838963 32.7370034,1.6138133 C32.721013,1.6687241 31.1046996,8.23925759 37.0324682,12.9294048 C37.0118407,12.9966198 37.1037976,12.8435827 37.3083388,12.4702936 Z" id="Path-82-Copy-7" fill="#667816" transform="translate(34.951452, 7.279301) rotate(31.000000) translate(-34.951452, -7.279301) "></path>
            <path d="M35.6856347,25.3828474 C36.0985499,20.7983776 34.5700775,16.6363999 31.1002176,12.8969143 C31.0844904,12.9599197 29.4982153,20.5001537 35.4126628,25.9091034 C35.3923627,25.9862228 35.4833533,25.8108041 35.6856347,25.3828474 Z" id="Path-82-Copy-4" fill="#667816" transform="translate(33.323477, 19.411840) rotate(93.000000) translate(-33.323477, -19.411840) "></path>
            <path d="M42.1999204,18.9122592 C42.6128356,14.3277893 41.0843632,10.1658116 37.6145033,6.4263261 C37.5987761,6.48933149 36.0125011,14.0295654 41.9269485,19.4385152 C41.9066484,19.5156346 41.9976391,19.3402159 42.1999204,18.9122592 Z" id="Path-82-Copy-5" fill="#667816" transform="translate(39.837762, 12.941252) rotate(93.000000) translate(-39.837762, -12.941252) "></path>
            <path d="M51.9520477,10.8263478 C52.4977335,6.24432342 50.4543959,2.0812145 45.8220349,-1.662979 C45.8011271,-1.60002492 43.6936445,5.93458956 51.5885307,11.3519259 C51.5615391,11.4289806 51.6827114,11.2537879 51.9520477,10.8263478 Z" id="Path-82-Copy-6" fill="#667816" transform="translate(48.794943, 4.853300) rotate(104.000000) translate(-48.794943, -4.853300) "></path>
            <path d="M35.8538031,36.9010239 C36.6777286,31.7761756 33.5958739,27.1168155 26.6082391,22.9229434 C26.5766883,22.9933394 23.3962231,31.4191093 35.3053307,37.4885041 C35.2645999,37.5746659 35.447424,37.3788391 35.8538031,36.9010239 Z" id="Path-82-Copy" fill="#667816" transform="translate(31.092009, 30.215596) scale(-1, 1) rotate(-18.000000) translate(-31.092009, -30.215596) "></path>
        </g>
        <g id="Group-Copy-14" transform="translate(208.000000, 542.500000) scale(-1, 1) rotate(60.000000) translate(-208.000000, -542.500000) translate(180.000000, 515.000000)">
            <path d="M24.8042353,54.091721 C17.8255204,31.525893 24.2504744,15.1925597 44.0790974,5.09172097" id="Path-80" stroke="#979797"></path>
            <line x1="23.0790974" y1="38.091721" x2="26.0790974" y2="35.091721" id="Path-81" stroke="#979797"></line>
            <path d="M23.9696793,29.3401064 C24.6530007,23.0059808 22.1357888,17.256519 16.4180436,12.091721 C16.3920816,12.1787772 13.7728215,22.5971719 23.5193934,30.0673171 C23.485885,30.1738755 23.6359803,29.9314719 23.9696793,29.3401064 Z" id="Path-82" fill="#667816"></path>
            <path d="M28.1643949,20.2249094 C28.5887642,15.6685059 27.0586232,11.5356928 23.5739718,7.82646998 C23.5580234,7.8891091 21.9471579,15.3849375 27.888678,20.7483803 C27.8681005,20.8250534 27.9600061,20.6505631 28.1643949,20.2249094 Z" id="Path-82-Copy-3" fill="#667816" transform="translate(25.798360, 14.296202) rotate(14.000000) translate(-25.798360, -14.296202) "></path>
            <path d="M37.3083388,12.4702936 C37.7367903,8.47721639 36.2130118,4.85838963 32.7370034,1.6138133 C32.721013,1.6687241 31.1046996,8.23925759 37.0324682,12.9294048 C37.0118407,12.9966198 37.1037976,12.8435827 37.3083388,12.4702936 Z" id="Path-82-Copy-7" fill="#667816" transform="translate(34.951452, 7.279301) rotate(31.000000) translate(-34.951452, -7.279301) "></path>
            <path d="M35.6856347,25.3828474 C36.0985499,20.7983776 34.5700775,16.6363999 31.1002176,12.8969143 C31.0844904,12.9599197 29.4982153,20.5001537 35.4126628,25.9091034 C35.3923627,25.9862228 35.4833533,25.8108041 35.6856347,25.3828474 Z" id="Path-82-Copy-4" fill="#667816" transform="translate(33.323477, 19.411840) rotate(93.000000) translate(-33.323477, -19.411840) "></path>
            <path d="M42.1999204,18.9122592 C42.6128356,14.3277893 41.0843632,10.1658116 37.6145033,6.4263261 C37.5987761,6.48933149 36.0125011,14.0295654 41.9269485,19.4385152 C41.9066484,19.5156346 41.9976391,19.3402159 42.1999204,18.9122592 Z" id="Path-82-Copy-5" fill="#667816" transform="translate(39.837762, 12.941252) rotate(93.000000) translate(-39.837762, -12.941252) "></path>
            <path d="M51.9520477,10.8263478 C52.4977335,6.24432342 50.4543959,2.0812145 45.8220349,-1.662979 C45.8011271,-1.60002492 43.6936445,5.93458956 51.5885307,11.3519259 C51.5615391,11.4289806 51.6827114,11.2537879 51.9520477,10.8263478 Z" id="Path-82-Copy-6" fill="#667816" transform="translate(48.794943, 4.853300) rotate(104.000000) translate(-48.794943, -4.853300) "></path>
            <path d="M35.8538031,36.9010239 C36.6777286,31.7761756 33.5958739,27.1168155 26.6082391,22.9229434 C26.5766883,22.9933394 23.3962231,31.4191093 35.3053307,37.4885041 C35.2645999,37.5746659 35.447424,37.3788391 35.8538031,36.9010239 Z" id="Path-82-Copy" fill="#667816" transform="translate(31.092009, 30.215596) scale(-1, 1) rotate(-18.000000) translate(-31.092009, -30.215596) "></path>
            <path d="M19.3064636,41.5814384 C20.4291949,33.5616193 16.3693578,26.2926107 7.12695227,19.7744126 C7.08469706,19.8846927 2.81737589,33.0807513 18.5756365,42.5034313 C18.5211142,42.638422 18.7647233,42.331091 19.3064636,41.5814384 Z" id="Path-82-Copy-2" fill="#667816" transform="translate(13.029176, 31.154371) scale(-1, 1) rotate(71.000000) translate(-13.029176, -31.154371) "></path>
        </g>
        <g id="Group-Copy-16" transform="translate(209.000000, 354.500000) rotate(128.000000) translate(-209.000000, -354.500000) translate(181.000000, 327.000000)">
            <path d="M24.8042353,54.091721 C17.8255204,31.525893 24.2504744,15.1925597 44.0790974,5.09172097" id="Path-80" stroke="#979797"></path>
            <line x1="23.0790974" y1="38.091721" x2="26.0790974" y2="35.091721" id="Path-81" stroke="#979797"></line>
            <path d="M23.9696793,29.3401064 C24.6530007,23.0059808 22.1357888,17.256519 16.4180436,12.091721 C16.3920816,12.1787772 13.7728215,22.5971719 23.5193934,30.0673171 C23.485885,30.1738755 23.6359803,29.9314719 23.9696793,29.3401064 Z" id="Path-82" fill="#667816"></path>
            <path d="M28.1643949,20.2249094 C28.5887642,15.6685059 27.0586232,11.5356928 23.5739718,7.82646998 C23.5580234,7.8891091 21.9471579,15.3849375 27.888678,20.7483803 C27.8681005,20.8250534 27.9600061,20.6505631 28.1643949,20.2249094 Z" id="Path-82-Copy-3" fill="#667816" transform="translate(25.798360, 14.296202) rotate(14.000000) translate(-25.798360, -14.296202) "></path>
            <path d="M37.3083388,12.4702936 C37.7367903,8.47721639 36.2130118,4.85838963 32.7370034,1.6138133 C32.721013,1.6687241 31.1046996,8.23925759 37.0324682,12.9294048 C37.0118407,12.9966198 37.1037976,12.8435827 37.3083388,12.4702936 Z" id="Path-82-Copy-7" fill="#667816" transform="translate(34.951452, 7.279301) rotate(31.000000) translate(-34.951452, -7.279301) "></path>
            <path d="M35.6856347,25.3828474 C36.0985499,20.7983776 34.5700775,16.6363999 31.1002176,12.8969143 C31.0844904,12.9599197 29.4982153,20.5001537 35.4126628,25.9091034 C35.3923627,25.9862228 35.4833533,25.8108041 35.6856347,25.3828474 Z" id="Path-82-Copy-4" fill="#667816" transform="translate(33.323477, 19.411840) rotate(93.000000) translate(-33.323477, -19.411840) "></path>
            <path d="M42.1999204,18.9122592 C42.6128356,14.3277893 41.0843632,10.1658116 37.6145033,6.4263261 C37.5987761,6.48933149 36.0125011,14.0295654 41.9269485,19.4385152 C41.9066484,19.5156346 41.9976391,19.3402159 42.1999204,18.9122592 Z" id="Path-82-Copy-5" fill="#667816" transform="translate(39.837762, 12.941252) rotate(93.000000) translate(-39.837762, -12.941252) "></path>
            <path d="M51.9520477,10.8263478 C52.4977335,6.24432342 50.4543959,2.0812145 45.8220349,-1.662979 C45.8011271,-1.60002492 43.6936445,5.93458956 51.5885307,11.3519259 C51.5615391,11.4289806 51.6827114,11.2537879 51.9520477,10.8263478 Z" id="Path-82-Copy-6" fill="#667816" transform="translate(48.794943, 4.853300) rotate(104.000000) translate(-48.794943, -4.853300) "></path>
            <path d="M35.8538031,36.9010239 C36.6777286,31.7761756 33.5958739,27.1168155 26.6082391,22.9229434 C26.5766883,22.9933394 23.3962231,31.4191093 35.3053307,37.4885041 C35.2645999,37.5746659 35.447424,37.3788391 35.8538031,36.9010239 Z" id="Path-82-Copy" fill="#667816" transform="translate(31.092009, 30.215596) scale(-1, 1) rotate(-18.000000) translate(-31.092009, -30.215596) "></path>
            <path d="M19.3064636,41.5814384 C20.4291949,33.5616193 16.3693578,26.2926107 7.12695227,19.7744126 C7.08469706,19.8846927 2.81737589,33.0807513 18.5756365,42.5034313 C18.5211142,42.638422 18.7647233,42.331091 19.3064636,41.5814384 Z" id="Path-82-Copy-2" fill="#667816" transform="translate(13.029176, 31.154371) scale(-1, 1) rotate(71.000000) translate(-13.029176, -31.154371) "></path>
        </g>
        <g id="Group-Copy-18" transform="translate(320.000000, 608.500000) scale(-1, 1) rotate(170.000000) translate(-320.000000, -608.500000) translate(292.000000, 581.000000)">
            <path d="M24.8042353,54.091721 C17.8255204,31.525893 24.2504744,15.1925597 44.0790974,5.09172097" id="Path-80" stroke="#979797"></path>
            <line x1="23.0790974" y1="38.091721" x2="26.0790974" y2="35.091721" id="Path-81" stroke="#979797"></line>
            <path d="M23.9696793,29.3401064 C24.6530007,23.0059808 22.1357888,17.256519 16.4180436,12.091721 C16.3920816,12.1787772 13.7728215,22.5971719 23.5193934,30.0673171 C23.485885,30.1738755 23.6359803,29.9314719 23.9696793,29.3401064 Z" id="Path-82" fill="#667816"></path>
            <path d="M28.1643949,20.2249094 C28.5887642,15.6685059 27.0586232,11.5356928 23.5739718,7.82646998 C23.5580234,7.8891091 21.9471579,15.3849375 27.888678,20.7483803 C27.8681005,20.8250534 27.9600061,20.6505631 28.1643949,20.2249094 Z" id="Path-82-Copy-3" fill="#667816" transform="translate(25.798360, 14.296202) rotate(14.000000) translate(-25.798360, -14.296202) "></path>
            <path d="M37.3083388,12.4702936 C37.7367903,8.47721639 36.2130118,4.85838963 32.7370034,1.6138133 C32.721013,1.6687241 31.1046996,8.23925759 37.0324682,12.9294048 C37.0118407,12.9966198 37.1037976,12.8435827 37.3083388,12.4702936 Z" id="Path-82-Copy-7" fill="#667816" transform="translate(34.951452, 7.279301) rotate(31.000000) translate(-34.951452, -7.279301) "></path>
            <path d="M35.6856347,25.3828474 C36.0985499,20.7983776 34.5700775,16.6363999 31.1002176,12.8969143 C31.0844904,12.9599197 29.4982153,20.5001537 35.4126628,25.9091034 C35.3923627,25.9862228 35.4833533,25.8108041 35.6856347,25.3828474 Z" id="Path-82-Copy-4" fill="#667816" transform="translate(33.323477, 19.411840) rotate(93.000000) translate(-33.323477, -19.411840) "></path>
            <path d="M42.1999204,18.9122592 C42.6128356,14.3277893 41.0843632,10.1658116 37.6145033,6.4263261 C37.5987761,6.48933149 36.0125011,14.0295654 41.9269485,19.4385152 C41.9066484,19.5156346 41.9976391,19.3402159 42.1999204,18.9122592 Z" id="Path-82-Copy-5" fill="#667816" transform="translate(39.837762, 12.941252) rotate(93.000000) translate(-39.837762, -12.941252) "></path>
            <path d="M51.9520477,10.8263478 C52.4977335,6.24432342 50.4543959,2.0812145 45.8220349,-1.662979 C45.8011271,-1.60002492 43.6936445,5.93458956 51.5885307,11.3519259 C51.5615391,11.4289806 51.6827114,11.2537879 51.9520477,10.8263478 Z" id="Path-82-Copy-6" fill="#667816" transform="translate(48.794943, 4.853300) rotate(104.000000) translate(-48.794943, -4.853300) "></path>
            <path d="M35.8538031,36.9010239 C36.6777286,31.7761756 33.5958739,27.1168155 26.6082391,22.9229434 C26.5766883,22.9933394 23.3962231,31.4191093 35.3053307,37.4885041 C35.2645999,37.5746659 35.447424,37.3788391 35.8538031,36.9010239 Z" id="Path-82-Copy" fill="#667816" transform="translate(31.092009, 30.215596) scale(-1, 1) rotate(-18.000000) translate(-31.092009, -30.215596) "></path>
            <path d="M19.3064636,41.5814384 C20.4291949,33.5616193 16.3693578,26.2926107 7.12695227,19.7744126 C7.08469706,19.8846927 2.81737589,33.0807513 18.5756365,42.5034313 C18.5211142,42.638422 18.7647233,42.331091 19.3064636,41.5814384 Z" id="Path-82-Copy-2" fill="#667816" transform="translate(13.029176, 31.154371) scale(-1, 1) rotate(71.000000) translate(-13.029176, -31.154371) "></path>
        </g>
        <g id="Group-Copy-17" transform="translate(40.000000, 629.500000) rotate(10.000000) translate(-40.000000, -629.500000) translate(12.000000, 602.000000)">
            <path d="M24.8042353,54.091721 C17.8255204,31.525893 24.2504744,15.1925597 44.0790974,5.09172097" id="Path-80" stroke="#979797"></path>
            <line x1="23.0790974" y1="38.091721" x2="26.0790974" y2="35.091721" id="Path-81" stroke="#979797"></line>
            <path d="M23.9696793,29.3401064 C24.6530007,23.0059808 22.1357888,17.256519 16.4180436,12.091721 C16.3920816,12.1787772 13.7728215,22.5971719 23.5193934,30.0673171 C23.485885,30.1738755 23.6359803,29.9314719 23.9696793,29.3401064 Z" id="Path-82" fill="#667816"></path>
            <path d="M28.1643949,20.2249094 C28.5887642,15.6685059 27.0586232,11.5356928 23.5739718,7.82646998 C23.5580234,7.8891091 21.9471579,15.3849375 27.888678,20.7483803 C27.8681005,20.8250534 27.9600061,20.6505631 28.1643949,20.2249094 Z" id="Path-82-Copy-3" fill="#667816" transform="translate(25.798360, 14.296202) rotate(14.000000) translate(-25.798360, -14.296202) "></path>
            <path d="M37.3083388,12.4702936 C37.7367903,8.47721639 36.2130118,4.85838963 32.7370034,1.6138133 C32.721013,1.6687241 31.1046996,8.23925759 37.0324682,12.9294048 C37.0118407,12.9966198 37.1037976,12.8435827 37.3083388,12.4702936 Z" id="Path-82-Copy-7" fill="#667816" transform="translate(34.951452, 7.279301) rotate(31.000000) translate(-34.951452, -7.279301) "></path>
            <path d="M35.6856347,25.3828474 C36.0985499,20.7983776 34.5700775,16.6363999 31.1002176,12.8969143 C31.0844904,12.9599197 29.4982153,20.5001537 35.4126628,25.9091034 C35.3923627,25.9862228 35.4833533,25.8108041 35.6856347,25.3828474 Z" id="Path-82-Copy-4" fill="#667816" transform="translate(33.323477, 19.411840) rotate(93.000000) translate(-33.323477, -19.411840) "></path>
            <path d="M42.1999204,18.9122592 C42.6128356,14.3277893 41.0843632,10.1658116 37.6145033,6.4263261 C37.5987761,6.48933149 36.0125011,14.0295654 41.9269485,19.4385152 C41.9066484,19.5156346 41.9976391,19.3402159 42.1999204,18.9122592 Z" id="Path-82-Copy-5" fill="#667816" transform="translate(39.837762, 12.941252) rotate(93.000000) translate(-39.837762, -12.941252) "></path>
            <path d="M51.9520477,10.8263478 C52.4977335,6.24432342 50.4543959,2.0812145 45.8220349,-1.662979 C45.8011271,-1.60002492 43.6936445,5.93458956 51.5885307,11.3519259 C51.5615391,11.4289806 51.6827114,11.2537879 51.9520477,10.8263478 Z" id="Path-82-Copy-6" fill="#667816" transform="translate(48.794943, 4.853300) rotate(104.000000) translate(-48.794943, -4.853300) "></path>
            <path d="M35.8538031,36.9010239 C36.6777286,31.7761756 33.5958739,27.1168155 26.6082391,22.9229434 C26.5766883,22.9933394 23.3962231,31.4191093 35.3053307,37.4885041 C35.2645999,37.5746659 35.447424,37.3788391 35.8538031,36.9010239 Z" id="Path-82-Copy" fill="#667816" transform="translate(31.092009, 30.215596) scale(-1, 1) rotate(-18.000000) translate(-31.092009, -30.215596) "></path>
            <path d="M19.3064636,41.5814384 C20.4291949,33.5616193 16.3693578,26.2926107 7.12695227,19.7744126 C7.08469706,19.8846927 2.81737589,33.0807513 18.5756365,42.5034313 C18.5211142,42.638422 18.7647233,42.331091 19.3064636,41.5814384 Z" id="Path-82-Copy-2" fill="#667816" transform="translate(13.029176, 31.154371) scale(-1, 1) rotate(71.000000) translate(-13.029176, -31.154371) "></path>
        </g>
        <g id="Group-Copy-15" transform="translate(330.000000, 422.500000) scale(1, -1) rotate(60.000000) translate(-330.000000, -422.500000) translate(302.000000, 395.000000)">
            <path d="M24.8042353,54.091721 C17.8255204,31.525893 24.2504744,15.1925597 44.0790974,5.09172097" id="Path-80" stroke="#979797"></path>
            <line x1="23.0790974" y1="38.091721" x2="26.0790974" y2="35.091721" id="Path-81" stroke="#979797"></line>
            <path d="M23.9696793,29.3401064 C24.6530007,23.0059808 22.1357888,17.256519 16.4180436,12.091721 C16.3920816,12.1787772 13.7728215,22.5971719 23.5193934,30.0673171 C23.485885,30.1738755 23.6359803,29.9314719 23.9696793,29.3401064 Z" id="Path-82" fill="#667816"></path>
            <path d="M28.1643949,20.2249094 C28.5887642,15.6685059 27.0586232,11.5356928 23.5739718,7.82646998 C23.5580234,7.8891091 21.9471579,15.3849375 27.888678,20.7483803 C27.8681005,20.8250534 27.9600061,20.6505631 28.1643949,20.2249094 Z" id="Path-82-Copy-3" fill="#667816" transform="translate(25.798360, 14.296202) rotate(14.000000) translate(-25.798360, -14.296202) "></path>
            <path d="M37.3083388,12.4702936 C37.7367903,8.47721639 36.2130118,4.85838963 32.7370034,1.6138133 C32.721013,1.6687241 31.1046996,8.23925759 37.0324682,12.9294048 C37.0118407,12.9966198 37.1037976,12.8435827 37.3083388,12.4702936 Z" id="Path-82-Copy-7" fill="#667816" transform="translate(34.951452, 7.279301) rotate(31.000000) translate(-34.951452, -7.279301) "></path>
            <path d="M35.6856347,25.3828474 C36.0985499,20.7983776 34.5700775,16.6363999 31.1002176,12.8969143 C31.0844904,12.9599197 29.4982153,20.5001537 35.4126628,25.9091034 C35.3923627,25.9862228 35.4833533,25.8108041 35.6856347,25.3828474 Z" id="Path-82-Copy-4" fill="#667816" transform="translate(33.323477, 19.411840) rotate(93.000000) translate(-33.323477, -19.411840) "></path>
            <path d="M42.1999204,18.9122592 C42.6128356,14.3277893 41.0843632,10.1658116 37.6145033,6.4263261 C37.5987761,6.48933149 36.0125011,14.0295654 41.9269485,19.4385152 C41.9066484,19.5156346 41.9976391,19.3402159 42.1999204,18.9122592 Z" id="Path-82-Copy-5" fill="#667816" transform="translate(39.837762, 12.941252) rotate(93.000000) translate(-39.837762, -12.941252) "></path>
            <path d="M51.9520477,10.8263478 C52.4977335,6.24432342 50.4543959,2.0812145 45.8220349,-1.662979 C45.8011271,-1.60002492 43.6936445,5.93458956 51.5885307,11.3519259 C51.5615391,11.4289806 51.6827114,11.2537879 51.9520477,10.8263478 Z" id="Path-82-Copy-6" fill="#667816" transform="translate(48.794943, 4.853300) rotate(104.000000) translate(-48.794943, -4.853300) "></path>
            <path d="M35.8538031,36.9010239 C36.6777286,31.7761756 33.5958739,27.1168155 26.6082391,22.9229434 C26.5766883,22.9933394 23.3962231,31.4191093 35.3053307,37.4885041 C35.2645999,37.5746659 35.447424,37.3788391 35.8538031,36.9010239 Z" id="Path-82-Copy" fill="#667816" transform="translate(31.092009, 30.215596) scale(-1, 1) rotate(-18.000000) translate(-31.092009, -30.215596) "></path>
            <path d="M19.3064636,41.5814384 C20.4291949,33.5616193 16.3693578,26.2926107 7.12695227,19.7744126 C7.08469706,19.8846927 2.81737589,33.0807513 18.5756365,42.5034313 C18.5211142,42.638422 18.7647233,42.331091 19.3064636,41.5814384 Z" id="Path-82-Copy-2" fill="#667816" transform="translate(13.029176, 31.154371) scale(-1, 1) rotate(71.000000) translate(-13.029176, -31.154371) "></path>
        </g>
        <g id="Group-Copy-19" opacity="0.452613467" transform="translate(280.000000, 359.500000) scale(1, -1) rotate(60.000000) translate(-280.000000, -359.500000) translate(252.000000, 332.000000)">
            <path d="M24.8042353,54.091721 C17.8255204,31.525893 24.2504744,15.1925597 44.0790974,5.09172097" id="Path-80" stroke="#D3CFCA"></path>
            <line x1="23.0790974" y1="38.091721" x2="26.0790974" y2="35.091721" id="Path-81" stroke="#979797"></line>
            <path d="M23.9696793,29.3401064 C24.6530007,23.0059808 22.1357888,17.256519 16.4180436,12.091721 C16.3920816,12.1787772 13.7728215,22.5971719 23.5193934,30.0673171 C23.485885,30.1738755 23.6359803,29.9314719 23.9696793,29.3401064 Z" id="Path-82" fill="#D3CFCA"></path>
            <path d="M28.1643949,20.2249094 C28.5887642,15.6685059 27.0586232,11.5356928 23.5739718,7.82646998 C23.5580234,7.8891091 21.9471579,15.3849375 27.888678,20.7483803 C27.8681005,20.8250534 27.9600061,20.6505631 28.1643949,20.2249094 Z" id="Path-82-Copy-3" fill="#D3CFCA" transform="translate(25.798360, 14.296202) rotate(14.000000) translate(-25.798360, -14.296202) "></path>
            <path d="M37.3083388,12.4702936 C37.7367903,8.47721639 36.2130118,4.85838963 32.7370034,1.6138133 C32.721013,1.6687241 31.1046996,8.23925759 37.0324682,12.9294048 C37.0118407,12.9966198 37.1037976,12.8435827 37.3083388,12.4702936 Z" id="Path-82-Copy-7" fill="#D3CFCA" transform="translate(34.951452, 7.279301) rotate(31.000000) translate(-34.951452, -7.279301) "></path>
            <path d="M35.6856347,25.3828474 C36.0985499,20.7983776 34.5700775,16.6363999 31.1002176,12.8969143 C31.0844904,12.9599197 29.4982153,20.5001537 35.4126628,25.9091034 C35.3923627,25.9862228 35.4833533,25.8108041 35.6856347,25.3828474 Z" id="Path-82-Copy-4" fill="#D3CFCA" transform="translate(33.323477, 19.411840) rotate(93.000000) translate(-33.323477, -19.411840) "></path>
            <path d="M42.1999204,18.9122592 C42.6128356,14.3277893 41.0843632,10.1658116 37.6145033,6.4263261 C37.5987761,6.48933149 36.0125011,14.0295654 41.9269485,19.4385152 C41.9066484,19.5156346 41.9976391,19.3402159 42.1999204,18.9122592 Z" id="Path-82-Copy-5" fill="#D3CFCA" transform="translate(39.837762, 12.941252) rotate(93.000000) translate(-39.837762, -12.941252) "></path>
            <path d="M51.9520477,10.8263478 C52.4977335,6.24432342 50.4543959,2.0812145 45.8220349,-1.662979 C45.8011271,-1.60002492 43.6936445,5.93458956 51.5885307,11.3519259 C51.5615391,11.4289806 51.6827114,11.2537879 51.9520477,10.8263478 Z" id="Path-82-Copy-6" fill="#D3CFCA" transform="translate(48.794943, 4.853300) rotate(104.000000) translate(-48.794943, -4.853300) "></path>
            <path d="M35.8538031,36.9010239 C36.6777286,31.7761756 33.5958739,27.1168155 26.6082391,22.9229434 C26.5766883,22.9933394 23.3962231,31.4191093 35.3053307,37.4885041 C35.2645999,37.5746659 35.447424,37.3788391 35.8538031,36.9010239 Z" id="Path-82-Copy" fill="#D3CFCA" transform="translate(31.092009, 30.215596) scale(-1, 1) rotate(-18.000000) translate(-31.092009, -30.215596) "></path>
            <path d="M19.3064636,41.5814384 C20.4291949,33.5616193 16.3693578,26.2926107 7.12695227,19.7744126 C7.08469706,19.8846927 2.81737589,33.0807513 18.5756365,42.5034313 C18.5211142,42.638422 18.7647233,42.331091 19.3064636,41.5814384 Z" id="Path-82-Copy-2" fill="#D3CFCA" transform="translate(13.029176, 31.154371) scale(-1, 1) rotate(71.000000) translate(-13.029176, -31.154371) "></path>
        </g>
        <g id="Group-Copy-20" opacity="0.452613467" transform="translate(294.000000, 88.500000) scale(-1, -1) rotate(60.000000) translate(-294.000000, -88.500000) translate(266.000000, 61.000000)">
            <path d="M24.8042353,54.091721 C17.8255204,31.525893 24.2504744,15.1925597 44.0790974,5.09172097" id="Path-80" stroke="#D3CFCA"></path>
            <line x1="23.0790974" y1="38.091721" x2="26.0790974" y2="35.091721" id="Path-81" stroke="#979797"></line>
            <path d="M23.9696793,29.3401064 C24.6530007,23.0059808 22.1357888,17.256519 16.4180436,12.091721 C16.3920816,12.1787772 13.7728215,22.5971719 23.5193934,30.0673171 C23.485885,30.1738755 23.6359803,29.9314719 23.9696793,29.3401064 Z" id="Path-82" fill="#D3CFCA"></path>
            <path d="M28.1643949,20.2249094 C28.5887642,15.6685059 27.0586232,11.5356928 23.5739718,7.82646998 C23.5580234,7.8891091 21.9471579,15.3849375 27.888678,20.7483803 C27.8681005,20.8250534 27.9600061,20.6505631 28.1643949,20.2249094 Z" id="Path-82-Copy-3" fill="#D3CFCA" transform="translate(25.798360, 14.296202) rotate(14.000000) translate(-25.798360, -14.296202) "></path>
            <path d="M37.3083388,12.4702936 C37.7367903,8.47721639 36.2130118,4.85838963 32.7370034,1.6138133 C32.721013,1.6687241 31.1046996,8.23925759 37.0324682,12.9294048 C37.0118407,12.9966198 37.1037976,12.8435827 37.3083388,12.4702936 Z" id="Path-82-Copy-7" fill="#D3CFCA" transform="translate(34.951452, 7.279301) rotate(31.000000) translate(-34.951452, -7.279301) "></path>
            <path d="M35.6856347,25.3828474 C36.0985499,20.7983776 34.5700775,16.6363999 31.1002176,12.8969143 C31.0844904,12.9599197 29.4982153,20.5001537 35.4126628,25.9091034 C35.3923627,25.9862228 35.4833533,25.8108041 35.6856347,25.3828474 Z" id="Path-82-Copy-4" fill="#D3CFCA" transform="translate(33.323477, 19.411840) rotate(93.000000) translate(-33.323477, -19.411840) "></path>
            <path d="M42.1999204,18.9122592 C42.6128356,14.3277893 41.0843632,10.1658116 37.6145033,6.4263261 C37.5987761,6.48933149 36.0125011,14.0295654 41.9269485,19.4385152 C41.9066484,19.5156346 41.9976391,19.3402159 42.1999204,18.9122592 Z" id="Path-82-Copy-5" fill="#D3CFCA" transform="translate(39.837762, 12.941252) rotate(93.000000) translate(-39.837762, -12.941252) "></path>
            <path d="M51.9520477,10.8263478 C52.4977335,6.24432342 50.4543959,2.0812145 45.8220349,-1.662979 C45.8011271,-1.60002492 43.6936445,5.93458956 51.5885307,11.3519259 C51.5615391,11.4289806 51.6827114,11.2537879 51.9520477,10.8263478 Z" id="Path-82-Copy-6" fill="#D3CFCA" transform="translate(48.794943, 4.853300) rotate(104.000000) translate(-48.794943, -4.853300) "></path>
            <path d="M35.8538031,36.9010239 C36.6777286,31.7761756 33.5958739,27.1168155 26.6082391,22.9229434 C26.5766883,22.9933394 23.3962231,31.4191093 35.3053307,37.4885041 C35.2645999,37.5746659 35.447424,37.3788391 35.8538031,36.9010239 Z" id="Path-82-Copy" fill="#D3CFCA" transform="translate(31.092009, 30.215596) scale(-1, 1) rotate(-18.000000) translate(-31.092009, -30.215596) "></path>
            <path d="M19.3064636,41.5814384 C20.4291949,33.5616193 16.3693578,26.2926107 7.12695227,19.7744126 C7.08469706,19.8846927 2.81737589,33.0807513 18.5756365,42.5034313 C18.5211142,42.638422 18.7647233,42.331091 19.3064636,41.5814384 Z" id="Path-82-Copy-2" fill="#D3CFCA" transform="translate(13.029176, 31.154371) scale(-1, 1) rotate(71.000000) translate(-13.029176, -31.154371) "></path>
        </g>
        <g id="Group-Copy-21" opacity="0.452613467" transform="translate(24.000000, 144.500000) scale(-1, -1) rotate(-120.000000) translate(-24.000000, -144.500000) translate(-4.000000, 117.000000)">
            <path d="M24.8042353,54.091721 C17.8255204,31.525893 24.2504744,15.1925597 44.0790974,5.09172097" id="Path-80" stroke="#D3CFCA"></path>
            <line x1="23.0790974" y1="38.091721" x2="26.0790974" y2="35.091721" id="Path-81" stroke="#979797"></line>
            <path d="M23.9696793,29.3401064 C24.6530007,23.0059808 22.1357888,17.256519 16.4180436,12.091721 C16.3920816,12.1787772 13.7728215,22.5971719 23.5193934,30.0673171 C23.485885,30.1738755 23.6359803,29.9314719 23.9696793,29.3401064 Z" id="Path-82" fill="#D3CFCA"></path>
            <path d="M28.1643949,20.2249094 C28.5887642,15.6685059 27.0586232,11.5356928 23.5739718,7.82646998 C23.5580234,7.8891091 21.9471579,15.3849375 27.888678,20.7483803 C27.8681005,20.8250534 27.9600061,20.6505631 28.1643949,20.2249094 Z" id="Path-82-Copy-3" fill="#D3CFCA" transform="translate(25.798360, 14.296202) rotate(14.000000) translate(-25.798360, -14.296202) "></path>
            <path d="M37.3083388,12.4702936 C37.7367903,8.47721639 36.2130118,4.85838963 32.7370034,1.6138133 C32.721013,1.6687241 31.1046996,8.23925759 37.0324682,12.9294048 C37.0118407,12.9966198 37.1037976,12.8435827 37.3083388,12.4702936 Z" id="Path-82-Copy-7" fill="#D3CFCA" transform="translate(34.951452, 7.279301) rotate(31.000000) translate(-34.951452, -7.279301) "></path>
            <path d="M35.6856347,25.3828474 C36.0985499,20.7983776 34.5700775,16.6363999 31.1002176,12.8969143 C31.0844904,12.9599197 29.4982153,20.5001537 35.4126628,25.9091034 C35.3923627,25.9862228 35.4833533,25.8108041 35.6856347,25.3828474 Z" id="Path-82-Copy-4" fill="#D3CFCA" transform="translate(33.323477, 19.411840) rotate(93.000000) translate(-33.323477, -19.411840) "></path>
            <path d="M42.1999204,18.9122592 C42.6128356,14.3277893 41.0843632,10.1658116 37.6145033,6.4263261 C37.5987761,6.48933149 36.0125011,14.0295654 41.9269485,19.4385152 C41.9066484,19.5156346 41.9976391,19.3402159 42.1999204,18.9122592 Z" id="Path-82-Copy-5" fill="#D3CFCA" transform="translate(39.837762, 12.941252) rotate(93.000000) translate(-39.837762, -12.941252) "></path>
            <path d="M51.9520477,10.8263478 C52.4977335,6.24432342 50.4543959,2.0812145 45.8220349,-1.662979 C45.8011271,-1.60002492 43.6936445,5.93458956 51.5885307,11.3519259 C51.5615391,11.4289806 51.6827114,11.2537879 51.9520477,10.8263478 Z" id="Path-82-Copy-6" fill="#D3CFCA" transform="translate(48.794943, 4.853300) rotate(104.000000) translate(-48.794943, -4.853300) "></path>
            <path d="M35.8538031,36.9010239 C36.6777286,31.7761756 33.5958739,27.1168155 26.6082391,22.9229434 C26.5766883,22.9933394 23.3962231,31.4191093 35.3053307,37.4885041 C35.2645999,37.5746659 35.447424,37.3788391 35.8538031,36.9010239 Z" id="Path-82-Copy" fill="#D3CFCA" transform="translate(31.092009, 30.215596) scale(-1, 1) rotate(-18.000000) translate(-31.092009, -30.215596) "></path>
            <path d="M19.3064636,41.5814384 C20.4291949,33.5616193 16.3693578,26.2926107 7.12695227,19.7744126 C7.08469706,19.8846927 2.81737589,33.0807513 18.5756365,42.5034313 C18.5211142,42.638422 18.7647233,42.331091 19.3064636,41.5814384 Z" id="Path-82-Copy-2" fill="#D3CFCA" transform="translate(13.029176, 31.154371) scale(-1, 1) rotate(71.000000) translate(-13.029176, -31.154371) "></path>
        </g>
        <g id="Group-Copy-22" opacity="0.452613467" transform="translate(111.000000, 215.500000) rotate(-120.000000) translate(-111.000000, -215.500000) translate(83.000000, 188.000000)">
            <path d="M24.8042353,54.091721 C17.8255204,31.525893 24.2504744,15.1925597 44.0790974,5.09172097" id="Path-80" stroke="#D3CFCA"></path>
            <line x1="23.0790974" y1="38.091721" x2="26.0790974" y2="35.091721" id="Path-81" stroke="#979797"></line>
            <path d="M23.9696793,29.3401064 C24.6530007,23.0059808 22.1357888,17.256519 16.4180436,12.091721 C16.3920816,12.1787772 13.7728215,22.5971719 23.5193934,30.0673171 C23.485885,30.1738755 23.6359803,29.9314719 23.9696793,29.3401064 Z" id="Path-82" fill="#D3CFCA"></path>
            <path d="M28.1643949,20.2249094 C28.5887642,15.6685059 27.0586232,11.5356928 23.5739718,7.82646998 C23.5580234,7.8891091 21.9471579,15.3849375 27.888678,20.7483803 C27.8681005,20.8250534 27.9600061,20.6505631 28.1643949,20.2249094 Z" id="Path-82-Copy-3" fill="#D3CFCA" transform="translate(25.798360, 14.296202) rotate(14.000000) translate(-25.798360, -14.296202) "></path>
            <path d="M37.3083388,12.4702936 C37.7367903,8.47721639 36.2130118,4.85838963 32.7370034,1.6138133 C32.721013,1.6687241 31.1046996,8.23925759 37.0324682,12.9294048 C37.0118407,12.9966198 37.1037976,12.8435827 37.3083388,12.4702936 Z" id="Path-82-Copy-7" fill="#D3CFCA" transform="translate(34.951452, 7.279301) rotate(31.000000) translate(-34.951452, -7.279301) "></path>
            <path d="M35.6856347,25.3828474 C36.0985499,20.7983776 34.5700775,16.6363999 31.1002176,12.8969143 C31.0844904,12.9599197 29.4982153,20.5001537 35.4126628,25.9091034 C35.3923627,25.9862228 35.4833533,25.8108041 35.6856347,25.3828474 Z" id="Path-82-Copy-4" fill="#D3CFCA" transform="translate(33.323477, 19.411840) rotate(93.000000) translate(-33.323477, -19.411840) "></path>
            <path d="M42.1999204,18.9122592 C42.6128356,14.3277893 41.0843632,10.1658116 37.6145033,6.4263261 C37.5987761,6.48933149 36.0125011,14.0295654 41.9269485,19.4385152 C41.9066484,19.5156346 41.9976391,19.3402159 42.1999204,18.9122592 Z" id="Path-82-Copy-5" fill="#D3CFCA" transform="translate(39.837762, 12.941252) rotate(93.000000) translate(-39.837762, -12.941252) "></path>
            <path d="M51.9520477,10.8263478 C52.4977335,6.24432342 50.4543959,2.0812145 45.8220349,-1.662979 C45.8011271,-1.60002492 43.6936445,5.93458956 51.5885307,11.3519259 C51.5615391,11.4289806 51.6827114,11.2537879 51.9520477,10.8263478 Z" id="Path-82-Copy-6" fill="#D3CFCA" transform="translate(48.794943, 4.853300) rotate(104.000000) translate(-48.794943, -4.853300) "></path>
            <path d="M35.8538031,36.9010239 C36.6777286,31.7761756 33.5958739,27.1168155 26.6082391,22.9229434 C26.5766883,22.9933394 23.3962231,31.4191093 35.3053307,37.4885041 C35.2645999,37.5746659 35.447424,37.3788391 35.8538031,36.9010239 Z" id="Path-82-Copy" fill="#D3CFCA" transform="translate(31.092009, 30.215596) scale(-1, 1) rotate(-18.000000) translate(-31.092009, -30.215596) "></path>
            <path d="M19.3064636,41.5814384 C20.4291949,33.5616193 16.3693578,26.2926107 7.12695227,19.7744126 C7.08469706,19.8846927 2.81737589,33.0807513 18.5756365,42.5034313 C18.5211142,42.638422 18.7647233,42.331091 19.3064636,41.5814384 Z" id="Path-82-Copy-2" fill="#D3CFCA" transform="translate(13.029176, 31.154371) scale(-1, 1) rotate(71.000000) translate(-13.029176, -31.154371) "></path>
        </g>
        <g id="Group-Copy-23" opacity="0.452613467" transform="translate(16.000000, 384.500000) scale(-1, -1) rotate(-45.000000) translate(-16.000000, -384.500000) translate(-12.000000, 357.000000)">
            <path d="M24.8042353,54.091721 C17.8255204,31.525893 24.2504744,15.1925597 44.0790974,5.09172097" id="Path-80" stroke="#D3CFCA"></path>
            <line x1="23.0790974" y1="38.091721" x2="26.0790974" y2="35.091721" id="Path-81" stroke="#979797"></line>
            <path d="M23.9696793,29.3401064 C24.6530007,23.0059808 22.1357888,17.256519 16.4180436,12.091721 C16.3920816,12.1787772 13.7728215,22.5971719 23.5193934,30.0673171 C23.485885,30.1738755 23.6359803,29.9314719 23.9696793,29.3401064 Z" id="Path-82" fill="#D3CFCA"></path>
            <path d="M28.1643949,20.2249094 C28.5887642,15.6685059 27.0586232,11.5356928 23.5739718,7.82646998 C23.5580234,7.8891091 21.9471579,15.3849375 27.888678,20.7483803 C27.8681005,20.8250534 27.9600061,20.6505631 28.1643949,20.2249094 Z" id="Path-82-Copy-3" fill="#D3CFCA" transform="translate(25.798360, 14.296202) rotate(14.000000) translate(-25.798360, -14.296202) "></path>
            <path d="M37.3083388,12.4702936 C37.7367903,8.47721639 36.2130118,4.85838963 32.7370034,1.6138133 C32.721013,1.6687241 31.1046996,8.23925759 37.0324682,12.9294048 C37.0118407,12.9966198 37.1037976,12.8435827 37.3083388,12.4702936 Z" id="Path-82-Copy-7" fill="#D3CFCA" transform="translate(34.951452, 7.279301) rotate(31.000000) translate(-34.951452, -7.279301) "></path>
            <path d="M35.6856347,25.3828474 C36.0985499,20.7983776 34.5700775,16.6363999 31.1002176,12.8969143 C31.0844904,12.9599197 29.4982153,20.5001537 35.4126628,25.9091034 C35.3923627,25.9862228 35.4833533,25.8108041 35.6856347,25.3828474 Z" id="Path-82-Copy-4" fill="#D3CFCA" transform="translate(33.323477, 19.411840) rotate(93.000000) translate(-33.323477, -19.411840) "></path>
            <path d="M42.1999204,18.9122592 C42.6128356,14.3277893 41.0843632,10.1658116 37.6145033,6.4263261 C37.5987761,6.48933149 36.0125011,14.0295654 41.9269485,19.4385152 C41.9066484,19.5156346 41.9976391,19.3402159 42.1999204,18.9122592 Z" id="Path-82-Copy-5" fill="#D3CFCA" transform="translate(39.837762, 12.941252) rotate(93.000000) translate(-39.837762, -12.941252) "></path>
            <path d="M51.9520477,10.8263478 C52.4977335,6.24432342 50.4543959,2.0812145 45.8220349,-1.662979 C45.8011271,-1.60002492 43.6936445,5.93458956 51.5885307,11.3519259 C51.5615391,11.4289806 51.6827114,11.2537879 51.9520477,10.8263478 Z" id="Path-82-Copy-6" fill="#D3CFCA" transform="translate(48.794943, 4.853300) rotate(104.000000) translate(-48.794943, -4.853300) "></path>
            <path d="M35.8538031,36.9010239 C36.6777286,31.7761756 33.5958739,27.1168155 26.6082391,22.9229434 C26.5766883,22.9933394 23.3962231,31.4191093 35.3053307,37.4885041 C35.2645999,37.5746659 35.447424,37.3788391 35.8538031,36.9010239 Z" id="Path-82-Copy" fill="#D3CFCA" transform="translate(31.092009, 30.215596) scale(-1, 1) rotate(-18.000000) translate(-31.092009, -30.215596) "></path>
            <path d="M19.3064636,41.5814384 C20.4291949,33.5616193 16.3693578,26.2926107 7.12695227,19.7744126 C7.08469706,19.8846927 2.81737589,33.0807513 18.5756365,42.5034313 C18.5211142,42.638422 18.7647233,42.331091 19.3064636,41.5814384 Z" id="Path-82-Copy-2" fill="#D3CFCA" transform="translate(13.029176, 31.154371) scale(-1, 1) rotate(71.000000) translate(-13.029176, -31.154371) "></path>
        </g>
        <g id="Group-Copy-24" opacity="0.452613467" transform="translate(58.000000, 577.500000) scale(-1, -1) rotate(-160.000000) translate(-58.000000, -577.500000) translate(30.000000, 550.000000)">
            <path d="M24.8042353,54.091721 C17.8255204,31.525893 24.2504744,15.1925597 44.0790974,5.09172097" id="Path-80" stroke="#D3CFCA"></path>
            <line x1="23.0790974" y1="38.091721" x2="26.0790974" y2="35.091721" id="Path-81" stroke="#979797"></line>
            <path d="M23.9696793,29.3401064 C24.6530007,23.0059808 22.1357888,17.256519 16.4180436,12.091721 C16.3920816,12.1787772 13.7728215,22.5971719 23.5193934,30.0673171 C23.485885,30.1738755 23.6359803,29.9314719 23.9696793,29.3401064 Z" id="Path-82" fill="#D3CFCA"></path>
            <path d="M28.1643949,20.2249094 C28.5887642,15.6685059 27.0586232,11.5356928 23.5739718,7.82646998 C23.5580234,7.8891091 21.9471579,15.3849375 27.888678,20.7483803 C27.8681005,20.8250534 27.9600061,20.6505631 28.1643949,20.2249094 Z" id="Path-82-Copy-3" fill="#D3CFCA" transform="translate(25.798360, 14.296202) rotate(14.000000) translate(-25.798360, -14.296202) "></path>
            <path d="M37.3083388,12.4702936 C37.7367903,8.47721639 36.2130118,4.85838963 32.7370034,1.6138133 C32.721013,1.6687241 31.1046996,8.23925759 37.0324682,12.9294048 C37.0118407,12.9966198 37.1037976,12.8435827 37.3083388,12.4702936 Z" id="Path-82-Copy-7" fill="#D3CFCA" transform="translate(34.951452, 7.279301) rotate(31.000000) translate(-34.951452, -7.279301) "></path>
            <path d="M35.6856347,25.3828474 C36.0985499,20.7983776 34.5700775,16.6363999 31.1002176,12.8969143 C31.0844904,12.9599197 29.4982153,20.5001537 35.4126628,25.9091034 C35.3923627,25.9862228 35.4833533,25.8108041 35.6856347,25.3828474 Z" id="Path-82-Copy-4" fill="#D3CFCA" transform="translate(33.323477, 19.411840) rotate(93.000000) translate(-33.323477, -19.411840) "></path>
            <path d="M42.1999204,18.9122592 C42.6128356,14.3277893 41.0843632,10.1658116 37.6145033,6.4263261 C37.5987761,6.48933149 36.0125011,14.0295654 41.9269485,19.4385152 C41.9066484,19.5156346 41.9976391,19.3402159 42.1999204,18.9122592 Z" id="Path-82-Copy-5" fill="#D3CFCA" transform="translate(39.837762, 12.941252) rotate(93.000000) translate(-39.837762, -12.941252) "></path>
            <path d="M51.9520477,10.8263478 C52.4977335,6.24432342 50.4543959,2.0812145 45.8220349,-1.662979 C45.8011271,-1.60002492 43.6936445,5.93458956 51.5885307,11.3519259 C51.5615391,11.4289806 51.6827114,11.2537879 51.9520477,10.8263478 Z" id="Path-82-Copy-6" fill="#D3CFCA" transform="translate(48.794943, 4.853300) rotate(104.000000) translate(-48.794943, -4.853300) "></path>
            <path d="M35.8538031,36.9010239 C36.6777286,31.7761756 33.5958739,27.1168155 26.6082391,22.9229434 C26.5766883,22.9933394 23.3962231,31.4191093 35.3053307,37.4885041 C35.2645999,37.5746659 35.447424,37.3788391 35.8538031,36.9010239 Z" id="Path-82-Copy" fill="#D3CFCA" transform="translate(31.092009, 30.215596) scale(-1, 1) rotate(-18.000000) translate(-31.092009, -30.215596) "></path>
            <path d="M19.3064636,41.5814384 C20.4291949,33.5616193 16.3693578,26.2926107 7.12695227,19.7744126 C7.08469706,19.8846927 2.81737589,33.0807513 18.5756365,42.5034313 C18.5211142,42.638422 18.7647233,42.331091 19.3064636,41.5814384 Z" id="Path-82-Copy-2" fill="#D3CFCA" transform="translate(13.029176, 31.154371) scale(-1, 1) rotate(71.000000) translate(-13.029176, -31.154371) "></path>
        </g>
        <g id="Group-Copy-25" opacity="0.452613467" transform="translate(170.000000, 495.500000) scale(-1, -1) rotate(-160.000000) translate(-170.000000, -495.500000) translate(142.000000, 468.000000)">
            <path d="M24.8042353,54.091721 C17.8255204,31.525893 24.2504744,15.1925597 44.0790974,5.09172097" id="Path-80" stroke="#D3CFCA"></path>
            <line x1="23.0790974" y1="38.091721" x2="26.0790974" y2="35.091721" id="Path-81" stroke="#979797"></line>
            <path d="M23.9696793,29.3401064 C24.6530007,23.0059808 22.1357888,17.256519 16.4180436,12.091721 C16.3920816,12.1787772 13.7728215,22.5971719 23.5193934,30.0673171 C23.485885,30.1738755 23.6359803,29.9314719 23.9696793,29.3401064 Z" id="Path-82" fill="#D3CFCA"></path>
            <path d="M28.1643949,20.2249094 C28.5887642,15.6685059 27.0586232,11.5356928 23.5739718,7.82646998 C23.5580234,7.8891091 21.9471579,15.3849375 27.888678,20.7483803 C27.8681005,20.8250534 27.9600061,20.6505631 28.1643949,20.2249094 Z" id="Path-82-Copy-3" fill="#D3CFCA" transform="translate(25.798360, 14.296202) rotate(14.000000) translate(-25.798360, -14.296202) "></path>
            <path d="M37.3083388,12.4702936 C37.7367903,8.47721639 36.2130118,4.85838963 32.7370034,1.6138133 C32.721013,1.6687241 31.1046996,8.23925759 37.0324682,12.9294048 C37.0118407,12.9966198 37.1037976,12.8435827 37.3083388,12.4702936 Z" id="Path-82-Copy-7" fill="#D3CFCA" transform="translate(34.951452, 7.279301) rotate(31.000000) translate(-34.951452, -7.279301) "></path>
            <path d="M35.6856347,25.3828474 C36.0985499,20.7983776 34.5700775,16.6363999 31.1002176,12.8969143 C31.0844904,12.9599197 29.4982153,20.5001537 35.4126628,25.9091034 C35.3923627,25.9862228 35.4833533,25.8108041 35.6856347,25.3828474 Z" id="Path-82-Copy-4" fill="#D3CFCA" transform="translate(33.323477, 19.411840) rotate(93.000000) translate(-33.323477, -19.411840) "></path>
            <path d="M42.1999204,18.9122592 C42.6128356,14.3277893 41.0843632,10.1658116 37.6145033,6.4263261 C37.5987761,6.48933149 36.0125011,14.0295654 41.9269485,19.4385152 C41.9066484,19.5156346 41.9976391,19.3402159 42.1999204,18.9122592 Z" id="Path-82-Copy-5" fill="#D3CFCA" transform="translate(39.837762, 12.941252) rotate(93.000000) translate(-39.837762, -12.941252) "></path>
            <path d="M51.9520477,10.8263478 C52.4977335,6.24432342 50.4543959,2.0812145 45.8220349,-1.662979 C45.8011271,-1.60002492 43.6936445,5.93458956 51.5885307,11.3519259 C51.5615391,11.4289806 51.6827114,11.2537879 51.9520477,10.8263478 Z" id="Path-82-Copy-6" fill="#D3CFCA" transform="translate(48.794943, 4.853300) rotate(104.000000) translate(-48.794943, -4.853300) "></path>
            <path d="M35.8538031,36.9010239 C36.6777286,31.7761756 33.5958739,27.1168155 26.6082391,22.9229434 C26.5766883,22.9933394 23.3962231,31.4191093 35.3053307,37.4885041 C35.2645999,37.5746659 35.447424,37.3788391 35.8538031,36.9010239 Z" id="Path-82-Copy" fill="#D3CFCA" transform="translate(31.092009, 30.215596) scale(-1, 1) rotate(-18.000000) translate(-31.092009, -30.215596) "></path>
            <path d="M19.3064636,41.5814384 C20.4291949,33.5616193 16.3693578,26.2926107 7.12695227,19.7744126 C7.08469706,19.8846927 2.81737589,33.0807513 18.5756365,42.5034313 C18.5211142,42.638422 18.7647233,42.331091 19.3064636,41.5814384 Z" id="Path-82-Copy-2" fill="#D3CFCA" transform="translate(13.029176, 31.154371) scale(-1, 1) rotate(71.000000) translate(-13.029176, -31.154371) "></path>
        </g>
        <rect id="Rectangle" fill="#FFFFFF" x="101" y="177" width="172" height="172"></rect>
        <text id="Click-on-plus-to-add" font-family="TenaliRamakrishna, Tenali Ramakrishna" font-size="24" font-weight="normal" line-spacing="27" fill="#3F3A41">
            <tspan x="110.632" y="258">Click on plus to </tspan>
            <tspan x="109" y="285">add your plants  </tspan>
        </text>
        <g id="Group-16" transform="translate(63.000000, 381.000000)">
            <g id="Group-3">
                <ellipse id="Oval" fill="#3F3A41" cx="4.94117647" cy="21.6666667" rx="4.94117647" ry="1.66666667"></ellipse>
                <path d="M27.9581801,33.4638951 C24.7355963,29.6038861 22.3101317,27.0396434 20.6817862,25.771167 C18.6553498,24.1925789 16.6171752,23.0693337 14.5672622,22.4014315 C11.3868228,21.3651814 8.17812752,21.4250108 4.94117647,22.5809198" id="Path-91" stroke="#3F3A41"></path>
                <line x1="7.82352941" y1="9.58333333" x2="14" y2="22.5" id="Path-92" stroke="#3F3A41"></line>
                <line x1="20.5882353" y1="21.6666667" x2="20.5882353" y2="25.8333333" id="Path-93" stroke="#3F3A41"></line>
                <line x1="18.4060633" y1="28.591512" x2="23.6597829" y2="28.3333333" id="Path-94" stroke="#3F3A41"></line>
                <path d="M20.6388067,22.5752767 C23.4219715,20.9311252 23.4219715,18.406033 20.6388067,15 C20.5708494,15.0382487 15.8890365,16.8551487 19.4571948,22.018998 C19.408539,22.0287936 19.730112,22.4515788 20.4219137,23.2873535 L20.6388067,22.5752767 Z" id="Path-95" fill="#3F3A41"></path>
                <path d="M15.8650038,34.0968888 C18.8878281,32.1214181 18.8998209,29.1057383 15.9009825,25.0498494 C15.8271824,25.0958194 10.7467234,27.2857091 14.5876002,33.4375795 C14.5348447,33.449486 14.8811981,33.9530387 15.6266606,34.9482377 L15.8650038,34.0968888 Z" id="Path-95-Copy" fill="#3F3A41" transform="translate(15.647188, 29.999044) scale(-1, 1) rotate(-69.000000) translate(-15.647188, -29.999044) "></path>
                <path d="M6.92722091,12.3166576 C10.9065015,10.0302087 10.8880389,6.48655945 6.87183294,1.68570992 C6.77465594,1.73887657 0.07381068,4.25349111 5.22861862,11.5271126 C5.15891358,11.5404939 5.62316864,12.1362358 6.62138382,13.3143382 L6.92722091,12.3166576 Z" id="Path-95-Copy-2" fill="#3F3A41" transform="translate(6.589777, 7.500024) scale(-1, 1) rotate(31.000000) translate(-6.589777, -7.500024) "></path>
            </g>
        </g>
        <g id="Group-16-Copy" transform="translate(26.000000, 212.500000) scale(-1, 1) translate(-26.000000, -212.500000) translate(12.000000, 195.000000)">
            <g id="Group-3">
                <ellipse id="Oval" fill="#3F3A41" cx="4.94117647" cy="21.6666667" rx="4.94117647" ry="1.66666667"></ellipse>
                <path d="M27.9581801,33.4638951 C24.7355963,29.6038861 22.3101317,27.0396434 20.6817862,25.771167 C18.6553498,24.1925789 16.6171752,23.0693337 14.5672622,22.4014315 C11.3868228,21.3651814 8.17812752,21.4250108 4.94117647,22.5809198" id="Path-91" stroke="#3F3A41"></path>
                <line x1="7.82352941" y1="9.58333333" x2="14" y2="22.5" id="Path-92" stroke="#3F3A41"></line>
                <line x1="20.5882353" y1="21.6666667" x2="20.5882353" y2="25.8333333" id="Path-93" stroke="#3F3A41"></line>
                <line x1="18.4060633" y1="28.591512" x2="23.6597829" y2="28.3333333" id="Path-94" stroke="#3F3A41"></line>
                <path d="M20.6388067,22.5752767 C23.4219715,20.9311252 23.4219715,18.406033 20.6388067,15 C20.5708494,15.0382487 15.8890365,16.8551487 19.4571948,22.018998 C19.408539,22.0287936 19.730112,22.4515788 20.4219137,23.2873535 L20.6388067,22.5752767 Z" id="Path-95" fill="#3F3A41"></path>
                <path d="M15.8650038,34.0968888 C18.8878281,32.1214181 18.8998209,29.1057383 15.9009825,25.0498494 C15.8271824,25.0958194 10.7467234,27.2857091 14.5876002,33.4375795 C14.5348447,33.449486 14.8811981,33.9530387 15.6266606,34.9482377 L15.8650038,34.0968888 Z" id="Path-95-Copy" fill="#3F3A41" transform="translate(15.647188, 29.999044) scale(-1, 1) rotate(-69.000000) translate(-15.647188, -29.999044) "></path>
                <path d="M6.92722091,12.3166576 C10.9065015,10.0302087 10.8880389,6.48655945 6.87183294,1.68570992 C6.77465594,1.73887657 0.07381068,4.25349111 5.22861862,11.5271126 C5.15891358,11.5404939 5.62316864,12.1362358 6.62138382,13.3143382 L6.92722091,12.3166576 Z" id="Path-95-Copy-2" fill="#3F3A41" transform="translate(6.589777, 7.500024) scale(-1, 1) rotate(31.000000) translate(-6.589777, -7.500024) "></path>
            </g>
        </g>
        <g id="Group-16-Copy-2" transform="translate(222.000000, 43.500000) scale(-1, 1) translate(-222.000000, -43.500000) translate(208.000000, 26.000000)">
            <g id="Group-3">
                <ellipse id="Oval" fill="#3F3A41" cx="4.94117647" cy="21.6666667" rx="4.94117647" ry="1.66666667"></ellipse>
                <path d="M27.9581801,33.4638951 C24.7355963,29.6038861 22.3101317,27.0396434 20.6817862,25.771167 C18.6553498,24.1925789 16.6171752,23.0693337 14.5672622,22.4014315 C11.3868228,21.3651814 8.17812752,21.4250108 4.94117647,22.5809198" id="Path-91" stroke="#3F3A41"></path>
                <line x1="7.82352941" y1="9.58333333" x2="14" y2="22.5" id="Path-92" stroke="#3F3A41"></line>
                <line x1="20.5882353" y1="21.6666667" x2="20.5882353" y2="25.8333333" id="Path-93" stroke="#3F3A41"></line>
                <line x1="18.4060633" y1="28.591512" x2="23.6597829" y2="28.3333333" id="Path-94" stroke="#3F3A41"></line>
                <path d="M20.6388067,22.5752767 C23.4219715,20.9311252 23.4219715,18.406033 20.6388067,15 C20.5708494,15.0382487 15.8890365,16.8551487 19.4571948,22.018998 C19.408539,22.0287936 19.730112,22.4515788 20.4219137,23.2873535 L20.6388067,22.5752767 Z" id="Path-95" fill="#3F3A41"></path>
                <path d="M15.8650038,34.0968888 C18.8878281,32.1214181 18.8998209,29.1057383 15.9009825,25.0498494 C15.8271824,25.0958194 10.7467234,27.2857091 14.5876002,33.4375795 C14.5348447,33.449486 14.8811981,33.9530387 15.6266606,34.9482377 L15.8650038,34.0968888 Z" id="Path-95-Copy" fill="#3F3A41" transform="translate(15.647188, 29.999044) scale(-1, 1) rotate(-69.000000) translate(-15.647188, -29.999044) "></path>
                <path d="M6.92722091,12.3166576 C10.9065015,10.0302087 10.8880389,6.48655945 6.87183294,1.68570992 C6.77465594,1.73887657 0.07381068,4.25349111 5.22861862,11.5271126 C5.15891358,11.5404939 5.62316864,12.1362358 6.62138382,13.3143382 L6.92722091,12.3166576 Z" id="Path-95-Copy-2" fill="#3F3A41" transform="translate(6.589777, 7.500024) scale(-1, 1) rotate(31.000000) translate(-6.589777, -7.500024) "></path>
            </g>
        </g>
        <g id="Group-16-Copy-7" transform="translate(356.000000, 149.500000) scale(1, -1) rotate(-90.000000) translate(-356.000000, -149.500000) translate(342.000000, 132.000000)">
            <g id="Group-3">
                <ellipse id="Oval" fill="#3F3A41" cx="4.94117647" cy="21.6666667" rx="4.94117647" ry="1.66666667"></ellipse>
                <path d="M27.9581801,33.4638951 C24.7355963,29.6038861 22.3101317,27.0396434 20.6817862,25.771167 C18.6553498,24.1925789 16.6171752,23.0693337 14.5672622,22.4014315 C11.3868228,21.3651814 8.17812752,21.4250108 4.94117647,22.5809198" id="Path-91" stroke="#3F3A41"></path>
                <line x1="7.82352941" y1="9.58333333" x2="14" y2="22.5" id="Path-92" stroke="#3F3A41"></line>
                <line x1="20.5882353" y1="21.6666667" x2="20.5882353" y2="25.8333333" id="Path-93" stroke="#3F3A41"></line>
                <line x1="18.4060633" y1="28.591512" x2="23.6597829" y2="28.3333333" id="Path-94" stroke="#3F3A41"></line>
                <path d="M20.6388067,22.5752767 C23.4219715,20.9311252 23.4219715,18.406033 20.6388067,15 C20.5708494,15.0382487 15.8890365,16.8551487 19.4571948,22.018998 C19.408539,22.0287936 19.730112,22.4515788 20.4219137,23.2873535 L20.6388067,22.5752767 Z" id="Path-95" fill="#3F3A41"></path>
                <path d="M15.8650038,34.0968888 C18.8878281,32.1214181 18.8998209,29.1057383 15.9009825,25.0498494 C15.8271824,25.0958194 10.7467234,27.2857091 14.5876002,33.4375795 C14.5348447,33.449486 14.8811981,33.9530387 15.6266606,34.9482377 L15.8650038,34.0968888 Z" id="Path-95-Copy" fill="#3F3A41" transform="translate(15.647188, 29.999044) scale(-1, 1) rotate(-69.000000) translate(-15.647188, -29.999044) "></path>
                <path d="M6.92722091,12.3166576 C10.9065015,10.0302087 10.8880389,6.48655945 6.87183294,1.68570992 C6.77465594,1.73887657 0.07381068,4.25349111 5.22861862,11.5271126 C5.15891358,11.5404939 5.62316864,12.1362358 6.62138382,13.3143382 L6.92722091,12.3166576 Z" id="Path-95-Copy-2" fill="#3F3A41" transform="translate(6.589777, 7.500024) scale(-1, 1) rotate(31.000000) translate(-6.589777, -7.500024) "></path>
            </g>
        </g>
        <g id="Group-16-Copy-3" transform="translate(352.000000, 308.500000) scale(-1, 1) translate(-352.000000, -308.500000) translate(338.000000, 291.000000)">
            <g id="Group-3">
                <ellipse id="Oval" fill="#3F3A41" cx="4.94117647" cy="21.6666667" rx="4.94117647" ry="1.66666667"></ellipse>
                <path d="M27.9581801,33.4638951 C24.7355963,29.6038861 22.3101317,27.0396434 20.6817862,25.771167 C18.6553498,24.1925789 16.6171752,23.0693337 14.5672622,22.4014315 C11.3868228,21.3651814 8.17812752,21.4250108 4.94117647,22.5809198" id="Path-91" stroke="#3F3A41"></path>
                <line x1="7.82352941" y1="9.58333333" x2="14" y2="22.5" id="Path-92" stroke="#3F3A41"></line>
                <line x1="20.5882353" y1="21.6666667" x2="20.5882353" y2="25.8333333" id="Path-93" stroke="#3F3A41"></line>
                <line x1="18.4060633" y1="28.591512" x2="23.6597829" y2="28.3333333" id="Path-94" stroke="#3F3A41"></line>
                <path d="M20.6388067,22.5752767 C23.4219715,20.9311252 23.4219715,18.406033 20.6388067,15 C20.5708494,15.0382487 15.8890365,16.8551487 19.4571948,22.018998 C19.408539,22.0287936 19.730112,22.4515788 20.4219137,23.2873535 L20.6388067,22.5752767 Z" id="Path-95" fill="#3F3A41"></path>
                <path d="M15.8650038,34.0968888 C18.8878281,32.1214181 18.8998209,29.1057383 15.9009825,25.0498494 C15.8271824,25.0958194 10.7467234,27.2857091 14.5876002,33.4375795 C14.5348447,33.449486 14.8811981,33.9530387 15.6266606,34.9482377 L15.8650038,34.0968888 Z" id="Path-95-Copy" fill="#3F3A41" transform="translate(15.647188, 29.999044) scale(-1, 1) rotate(-69.000000) translate(-15.647188, -29.999044) "></path>
                <path d="M6.92722091,12.3166576 C10.9065015,10.0302087 10.8880389,6.48655945 6.87183294,1.68570992 C6.77465594,1.73887657 0.07381068,4.25349111 5.22861862,11.5271126 C5.15891358,11.5404939 5.62316864,12.1362358 6.62138382,13.3143382 L6.92722091,12.3166576 Z" id="Path-95-Copy-2" fill="#3F3A41" transform="translate(6.589777, 7.500024) scale(-1, 1) rotate(31.000000) translate(-6.589777, -7.500024) "></path>
            </g>
        </g>
        <g id="Group-16-Copy-4" transform="translate(315.000000, 500.500000) scale(-1, -1) rotate(-45.000000) translate(-315.000000, -500.500000) translate(301.000000, 483.000000)">
            <g id="Group-3">
                <ellipse id="Oval" fill="#3F3A41" cx="4.94117647" cy="21.6666667" rx="4.94117647" ry="1.66666667"></ellipse>
                <path d="M27.9581801,33.4638951 C24.7355963,29.6038861 22.3101317,27.0396434 20.6817862,25.771167 C18.6553498,24.1925789 16.6171752,23.0693337 14.5672622,22.4014315 C11.3868228,21.3651814 8.17812752,21.4250108 4.94117647,22.5809198" id="Path-91" stroke="#3F3A41"></path>
                <line x1="7.82352941" y1="9.58333333" x2="14" y2="22.5" id="Path-92" stroke="#3F3A41"></line>
                <line x1="20.5882353" y1="21.6666667" x2="20.5882353" y2="25.8333333" id="Path-93" stroke="#3F3A41"></line>
                <line x1="18.4060633" y1="28.591512" x2="23.6597829" y2="28.3333333" id="Path-94" stroke="#3F3A41"></line>
                <path d="M20.6388067,22.5752767 C23.4219715,20.9311252 23.4219715,18.406033 20.6388067,15 C20.5708494,15.0382487 15.8890365,16.8551487 19.4571948,22.018998 C19.408539,22.0287936 19.730112,22.4515788 20.4219137,23.2873535 L20.6388067,22.5752767 Z" id="Path-95" fill="#3F3A41"></path>
                <path d="M15.8650038,34.0968888 C18.8878281,32.1214181 18.8998209,29.1057383 15.9009825,25.0498494 C15.8271824,25.0958194 10.7467234,27.2857091 14.5876002,33.4375795 C14.5348447,33.449486 14.8811981,33.9530387 15.6266606,34.9482377 L15.8650038,34.0968888 Z" id="Path-95-Copy" fill="#3F3A41" transform="translate(15.647188, 29.999044) scale(-1, 1) rotate(-69.000000) translate(-15.647188, -29.999044) "></path>
                <path d="M6.92722091,12.3166576 C10.9065015,10.0302087 10.8880389,6.48655945 6.87183294,1.68570992 C6.77465594,1.73887657 0.07381068,4.25349111 5.22861862,11.5271126 C5.15891358,11.5404939 5.62316864,12.1362358 6.62138382,13.3143382 L6.92722091,12.3166576 Z" id="Path-95-Copy-2" fill="#3F3A41" transform="translate(6.589777, 7.500024) scale(-1, 1) rotate(31.000000) translate(-6.589777, -7.500024) "></path>
            </g>
        </g>
        <g id="Group-16-Copy-5" transform="translate(102.000000, 504.500000) scale(1, -1) translate(-102.000000, -504.500000) translate(88.000000, 487.000000)">
            <g id="Group-3">
                <ellipse id="Oval" fill="#3F3A41" cx="4.94117647" cy="21.6666667" rx="4.94117647" ry="1.66666667"></ellipse>
                <path d="M27.9581801,33.4638951 C24.7355963,29.6038861 22.3101317,27.0396434 20.6817862,25.771167 C18.6553498,24.1925789 16.6171752,23.0693337 14.5672622,22.4014315 C11.3868228,21.3651814 8.17812752,21.4250108 4.94117647,22.5809198" id="Path-91" stroke="#3F3A41"></path>
                <line x1="7.82352941" y1="9.58333333" x2="14" y2="22.5" id="Path-92" stroke="#3F3A41"></line>
                <line x1="20.5882353" y1="21.6666667" x2="20.5882353" y2="25.8333333" id="Path-93" stroke="#3F3A41"></line>
                <line x1="18.4060633" y1="28.591512" x2="23.6597829" y2="28.3333333" id="Path-94" stroke="#3F3A41"></line>
                <path d="M20.6388067,22.5752767 C23.4219715,20.9311252 23.4219715,18.406033 20.6388067,15 C20.5708494,15.0382487 15.8890365,16.8551487 19.4571948,22.018998 C19.408539,22.0287936 19.730112,22.4515788 20.4219137,23.2873535 L20.6388067,22.5752767 Z" id="Path-95" fill="#3F3A41"></path>
                <path d="M15.8650038,34.0968888 C18.8878281,32.1214181 18.8998209,29.1057383 15.9009825,25.0498494 C15.8271824,25.0958194 10.7467234,27.2857091 14.5876002,33.4375795 C14.5348447,33.449486 14.8811981,33.9530387 15.6266606,34.9482377 L15.8650038,34.0968888 Z" id="Path-95-Copy" fill="#3F3A41" transform="translate(15.647188, 29.999044) scale(-1, 1) rotate(-69.000000) translate(-15.647188, -29.999044) "></path>
                <path d="M6.92722091,12.3166576 C10.9065015,10.0302087 10.8880389,6.48655945 6.87183294,1.68570992 C6.77465594,1.73887657 0.07381068,4.25349111 5.22861862,11.5271126 C5.15891358,11.5404939 5.62316864,12.1362358 6.62138382,13.3143382 L6.92722091,12.3166576 Z" id="Path-95-Copy-2" fill="#3F3A41" transform="translate(6.589777, 7.500024) scale(-1, 1) rotate(31.000000) translate(-6.589777, -7.500024) "></path>
            </g>
        </g>
        <g id="Group-8" transform="translate(169.000000, 408.000000)" stroke="#3F3A41">
            <path d="M12,0 C10.3997876,4.91641513 8.39978756,7.91641513 6,9" id="Path-90"></path>
            <ellipse id="Oval" fill="#3F3A41" transform="translate(4.062500, 10.164807) rotate(-29.000000) translate(-4.062500, -10.164807) " cx="4.0625" cy="10.1648072" rx="4.08699313" ry="1"></ellipse>
            <ellipse id="Oval-Copy-8" fill="#3F3A41" transform="translate(9.165529, 9.812801) scale(1, -1) rotate(84.000000) translate(-9.165529, -9.812801) " cx="9.1655291" cy="9.81280127" rx="4.1655291" ry="1"></ellipse>
        </g>
        <g id="Group-8-Copy" transform="translate(202.000000, 121.500000) rotate(66.000000) translate(-202.000000, -121.500000) translate(196.000000, 114.000000)" stroke="#3F3A41">
            <path d="M12,0 C10.3997876,4.91641513 8.39978756,7.91641513 6,9" id="Path-90"></path>
            <ellipse id="Oval" fill="#3F3A41" transform="translate(4.062500, 10.164807) rotate(-29.000000) translate(-4.062500, -10.164807) " cx="4.0625" cy="10.1648072" rx="4.08699313" ry="1"></ellipse>
            <ellipse id="Oval-Copy-8" fill="#3F3A41" transform="translate(9.165529, 9.812801) scale(1, -1) rotate(84.000000) translate(-9.165529, -9.812801) " cx="9.1655291" cy="9.81280127" rx="4.1655291" ry="1"></ellipse>
        </g>
        <g id="Group-8-Copy-2" transform="translate(46.000000, 95.500000) rotate(45.000000) translate(-46.000000, -95.500000) translate(40.000000, 88.000000)" stroke="#3F3A41">
            <path d="M12,0 C10.3997876,4.91641513 8.39978756,7.91641513 6,9" id="Path-90"></path>
            <ellipse id="Oval" fill="#3F3A41" transform="translate(4.062500, 10.164807) rotate(-29.000000) translate(-4.062500, -10.164807) " cx="4.0625" cy="10.1648072" rx="4.08699313" ry="1"></ellipse>
            <ellipse id="Oval-Copy-8" fill="#3F3A41" transform="translate(9.165529, 9.812801) scale(1, -1) rotate(84.000000) translate(-9.165529, -9.812801) " cx="9.1655291" cy="9.81280127" rx="4.1655291" ry="1"></ellipse>
        </g>
        <g id="Group-8-Copy-3" transform="translate(292.000000, 11.000000)" stroke="#3F3A41">
            <path d="M12,0 C10.3997876,4.91641513 8.39978756,7.91641513 6,9" id="Path-90"></path>
            <ellipse id="Oval" fill="#3F3A41" transform="translate(4.062500, 10.164807) rotate(-29.000000) translate(-4.062500, -10.164807) " cx="4.0625" cy="10.1648072" rx="4.08699313" ry="1"></ellipse>
            <ellipse id="Oval-Copy-8" fill="#3F3A41" transform="translate(9.165529, 9.812801) scale(1, -1) rotate(84.000000) translate(-9.165529, -9.812801) " cx="9.1655291" cy="9.81280127" rx="4.1655291" ry="1"></ellipse>
        </g>
        <g id="Group-8-Copy-4" transform="translate(336.000000, 99.500000) rotate(-170.000000) translate(-336.000000, -99.500000) translate(330.000000, 92.000000)" stroke="#3F3A41">
            <path d="M12,0 C10.3997876,4.91641513 8.39978756,7.91641513 6,9" id="Path-90"></path>
            <ellipse id="Oval" fill="#3F3A41" transform="translate(4.062500, 10.164807) rotate(-29.000000) translate(-4.062500, -10.164807) " cx="4.0625" cy="10.1648072" rx="4.08699313" ry="1"></ellipse>
            <ellipse id="Oval-Copy-8" fill="#3F3A41" transform="translate(9.165529, 9.812801) scale(1, -1) rotate(84.000000) translate(-9.165529, -9.812801) " cx="9.1655291" cy="9.81280127" rx="4.1655291" ry="1"></ellipse>
        </g>
        <g id="Group-8-Copy-5" transform="translate(90.000000, 155.000000)" stroke="#3F3A41">
            <path d="M12,0 C10.3997876,4.91641513 8.39978756,7.91641513 6,9" id="Path-90"></path>
            <ellipse id="Oval" fill="#3F3A41" transform="translate(4.062500, 10.164807) rotate(-29.000000) translate(-4.062500, -10.164807) " cx="4.0625" cy="10.1648072" rx="4.08699313" ry="1"></ellipse>
            <ellipse id="Oval-Copy-8" fill="#3F3A41" transform="translate(9.165529, 9.812801) scale(1, -1) rotate(84.000000) translate(-9.165529, -9.812801) " cx="9.1655291" cy="9.81280127" rx="4.1655291" ry="1"></ellipse>
        </g>
        <g id="Group-8-Copy-6" transform="translate(332.000000, 215.000000)" stroke="#3F3A41">
            <path d="M12,0 C10.3997876,4.91641513 8.39978756,7.91641513 6,9" id="Path-90"></path>
            <ellipse id="Oval" fill="#3F3A41" transform="translate(4.062500, 10.164807) rotate(-29.000000) translate(-4.062500, -10.164807) " cx="4.0625" cy="10.1648072" rx="4.08699313" ry="1"></ellipse>
            <ellipse id="Oval-Copy-8" fill="#3F3A41" transform="translate(9.165529, 9.812801) scale(1, -1) rotate(84.000000) translate(-9.165529, -9.812801) " cx="9.1655291" cy="9.81280127" rx="4.1655291" ry="1"></ellipse>
        </g>
        <g id="Group-8-Copy-7" transform="translate(34.000000, 534.500000) scale(-1, 1) rotate(90.000000) translate(-34.000000, -534.500000) translate(28.000000, 527.000000)" stroke="#3F3A41">
            <path d="M12,0 C10.3997876,4.91641513 8.39978756,7.91641513 6,9" id="Path-90"></path>
            <ellipse id="Oval" fill="#3F3A41" transform="translate(4.062500, 10.164807) rotate(-29.000000) translate(-4.062500, -10.164807) " cx="4.0625" cy="10.1648072" rx="4.08699313" ry="1"></ellipse>
            <ellipse id="Oval-Copy-8" fill="#3F3A41" transform="translate(9.165529, 9.812801) scale(1, -1) rotate(84.000000) translate(-9.165529, -9.812801) " cx="9.1655291" cy="9.81280127" rx="4.1655291" ry="1"></ellipse>
        </g>
        <g id="Group-16-Copy-6" transform="translate(236.000000, 460.500000) scale(-1, 1) rotate(78.000000) translate(-236.000000, -460.500000) translate(222.000000, 443.000000)">
            <g id="Group-3">
                <ellipse id="Oval" fill="#3F3A41" cx="4.94117647" cy="21.6666667" rx="4.94117647" ry="1.66666667"></ellipse>
                <path d="M27.9581801,33.4638951 C24.7355963,29.6038861 22.3101317,27.0396434 20.6817862,25.771167 C18.6553498,24.1925789 16.6171752,23.0693337 14.5672622,22.4014315 C11.3868228,21.3651814 8.17812752,21.4250108 4.94117647,22.5809198" id="Path-91" stroke="#3F3A41"></path>
                <line x1="7.82352941" y1="9.58333333" x2="14" y2="22.5" id="Path-92" stroke="#3F3A41"></line>
                <line x1="20.5882353" y1="21.6666667" x2="20.5882353" y2="25.8333333" id="Path-93" stroke="#3F3A41"></line>
                <line x1="18.4060633" y1="28.591512" x2="23.6597829" y2="28.3333333" id="Path-94" stroke="#3F3A41"></line>
                <path d="M20.6388067,22.5752767 C23.4219715,20.9311252 23.4219715,18.406033 20.6388067,15 C20.5708494,15.0382487 15.8890365,16.8551487 19.4571948,22.018998 C19.408539,22.0287936 19.730112,22.4515788 20.4219137,23.2873535 L20.6388067,22.5752767 Z" id="Path-95" fill="#3F3A41"></path>
                <path d="M15.8650038,34.0968888 C18.8878281,32.1214181 18.8998209,29.1057383 15.9009825,25.0498494 C15.8271824,25.0958194 10.7467234,27.2857091 14.5876002,33.4375795 C14.5348447,33.449486 14.8811981,33.9530387 15.6266606,34.9482377 L15.8650038,34.0968888 Z" id="Path-95-Copy" fill="#3F3A41" transform="translate(15.647188, 29.999044) scale(-1, 1) rotate(-69.000000) translate(-15.647188, -29.999044) "></path>
                <path d="M6.92722091,12.3166576 C10.9065015,10.0302087 10.8880389,6.48655945 6.87183294,1.68570992 C6.77465594,1.73887657 0.07381068,4.25349111 5.22861862,11.5271126 C5.15891358,11.5404939 5.62316864,12.1362358 6.62138382,13.3143382 L6.92722091,12.3166576 Z" id="Path-95-Copy-2" fill="#3F3A41" transform="translate(6.589777, 7.500024) scale(-1, 1) rotate(31.000000) translate(-6.589777, -7.500024) "></path>
            </g>
        </g>
        <path d="M212.222913,633.909635 C207.723842,625.398233 210.054202,619.761988 219.213993,617.000901 C219.588871,616.8944 222.807241,626.248785 212.777254,633.909635 C212.700683,634.030122 212.515902,634.030122 212.222913,633.909635 Z" id="Path-6-Copy-3" fill="#85BB4C" transform="translate(215.000000, 625.500000) rotate(26.000000) translate(-215.000000, -625.500000) "></path>
        <path d="M192.302432,622.004249 C188.37259,629.062452 189.473404,634.059899 195.604872,636.99659 C195.503427,637.198315 202.613574,628.408109 192.802436,622.004249 C192.750026,621.998584 192.583358,621.998584 192.302432,622.004249 Z" id="Path-7-Copy-3" fill="#D5D721" transform="translate(194.000000, 629.500000) rotate(-44.000000) translate(-194.000000, -629.500000) "></path>
    </g>
</svg>