<?xml version="1.0" encoding="UTF-8"?>
<svg width="1920px" height="1080px" viewBox="0 0 1920 1080" version="1.1" xmlns="http://www.w3.org/2000/svg" xmlns:xlink="http://www.w3.org/1999/xlink">
    <!-- Generator: Sketch 61.2 (89653) - https://sketch.com -->
    <title>BIGbgaddplant</title>
    <desc>Created with Sketch.</desc>
    <defs>
        <linearGradient x1="50%" y1="89.8402361%" x2="50%" y2="-18.5251124%" id="linearGradient-1">
            <stop stop-color="#BCD5D5" offset="0%"></stop>
            <stop stop-color="#DFECEC" offset="100%"></stop>
        </linearGradient>
    </defs>
    <g id="BIGbgaddplant" stroke="none" stroke-width="1" fill="none" fill-rule="evenodd">
        <rect id="Rectangle-Copy" fill="url(#linearGradient-1)" x="0" y="0" width="1920" height="1080"></rect>
        <g id="Group-2-Copy-10" transform="translate(1064.660799, 153.175890) rotate(38.000000) translate(-1064.660799, -153.175890) translate(1021.660799, 111.675890)" stroke="#D5D721">
            <g id="Group-2-Copy" transform="translate(42.935762, 41.587594) rotate(245.000000) translate(-42.935762, -41.587594) translate(13.435762, 8.087594)">
                <path d="M50.1036752,56.1790206 C41.0782736,42.0212141 27.377316,25.5962337 9.00080241,6.90407935" id="Path-59" transform="translate(29.552239, 31.541550) scale(-1, -1) rotate(25.000000) translate(-29.552239, -31.541550) "></path>
                <path d="M13.2772847,18.7821118 C41.654806,18.1446214 54.0796696,31.5366466 50.5518756,58.9581872 C51.0938647,60.1601936 9.04025122,65.8418943 12.2478635,20.1109964 C12.3541752,20.0501824 12.3545073,19.6074777 12.2488597,18.7828822 L13.2772847,18.7821118 Z" id="Path-60" transform="translate(31.605115, 39.293457) scale(-1, -1) rotate(25.000000) translate(-31.605115, -39.293457) "></path>
                <polyline id="Path-62" transform="translate(28.891944, 31.749554) scale(-1, -1) rotate(25.000000) translate(-28.891944, -31.749554) " points="17.9271555 41.8769157 37.542357 40.5683787 39.8567317 21.622192"></polyline>
                <polyline id="Path-64" transform="translate(31.015628, 38.395338) scale(-1, -1) rotate(25.000000) translate(-31.015628, -38.395338) " points="18.6382545 48.6500385 40.6279435 47.5811125 43.3930024 28.1406366"></polyline>
                <polyline id="Path-66" transform="translate(33.023814, 44.435166) scale(-1, -1) rotate(25.000000) translate(-33.023814, -44.435166) " points="20.9377445 54.3732622 42.3480471 52.971674 45.1098836 34.4970691"></polyline>
                <polyline id="Path-68" transform="translate(34.570812, 49.603718) scale(-1, -1) rotate(25.000000) translate(-34.570812, -49.603718) " points="24.4303058 58.7249414 43.0931581 58.9140931 44.7113177 40.2933428"></polyline>
                <polyline id="Path-70" transform="translate(37.106169, 57.560957) scale(-1, -1) rotate(25.000000) translate(-37.106169, -57.560957) " points="30.424276 63.312101 43.095755 62.3978358 43.7880614 51.8098131"></polyline>
                <polyline id="Path-71" transform="translate(38.005213, 60.627257) scale(-1, -1) rotate(25.000000) translate(-38.005213, -60.627257) " points="33.2131103 64.1883235 42.7973166 64.4112758 42.6834016 56.8432375"></polyline>
                <polyline id="Path-71-Copy" transform="translate(38.945574, 64.132511) scale(-1, -1) rotate(25.000000) translate(-38.945574, -64.132511) " points="36.2885284 65.7868271 41.6026191 65.9817622 41.3193296 62.2832603"></polyline>
                <polyline id="Path-73" transform="translate(35.772938, 54.076825) scale(-1, -1) rotate(25.000000) translate(-35.772938, -54.076825) " points="27.4625057 61.7963575 42.901691 61.175287 44.08337 46.3572923"></polyline>
            </g>
        </g>
        <g id="Group-15-Copy-8" transform="translate(1067.160799, 274.675890) rotate(110.000000) translate(-1067.160799, -274.675890) translate(1052.660799, 255.675890)" fill="#002A02">
            <g id="Group-14" transform="translate(0.240381, 0.870835)">
                <path d="M2.50457167,36.1911299 L3.69006715,35.2105601 L3.08562636,17.1712535 C-0.676897624,25.1911804 -0.998486508,31.4250769 2.12085971,35.8729431 C2.09123731,35.8324494 2.2191413,35.9385117 2.50457167,36.1911299 Z" id="Path-17"></path>
                <path d="M5.40930543,33.389591 L8.17462204,29.5461188 L6.32909881,12.47025 C4.93204906,13.6980388 4.23352418,14.5677701 4.23352418,15.079444 C4.23352418,15.5911178 4.62545127,21.6945002 5.40930543,33.389591 Z" id="Path-18"></path>
                <path d="M4.96317056,36.1911299 L4.96317056,36.8986789 C11.901887,34.6716309 16.5822855,31.9566817 19.0043661,28.7538313 C18.9685674,28.7427867 9.24120819,35.6594169 5.36361259,35.9252734 C5.37860368,35.8336954 5.245123,35.8336954 4.96317056,35.9252734 L4.96317056,36.1911299 Z" id="Path-19"></path>
                <path d="M5.55016172,35.0798902 C9.1740481,33.7585506 14.5485941,30.6335295 21.6737997,25.704827 C21.5244884,25.6724321 24.1739539,23.110896 24.9440762,20.2425425 C24.8769761,20.3931478 11.9613716,29.2771474 8.61140247,30.6163976 C8.55551568,30.6421474 7.5351021,32.1299783 5.55016172,35.0798902 Z" id="Path-20"></path>
                <path d="M9.23653097,29.3824309 L24.6702789,19.5413791 C25.599007,18.311929 26.2329502,16.8807893 26.5721087,15.2479599 C26.537929,15.2629114 18.3391214,21.9119852 12.4485221,25.3329082 C12.4749064,25.310481 11.4042427,26.6603219 9.23653097,29.3824309 Z" id="Path-21"></path>
                <path d="M13.804916,22.9299205 C19.5673222,19.8964255 23.8644638,16.8944948 26.6963409,13.9241284 C26.5959605,14.0276988 27.253004,12.4844228 27.253004,10.9898769 C27.2355544,10.9852225 19.879456,17.3427286 15.9316122,19.3499686 C15.8899969,19.3529797 15.1810982,20.546297 13.804916,22.9299205 Z" id="Path-22"></path>
                <path d="M9.56573533,26.9177682 L12.2756449,23.4283041 C10.4359382,13.9816502 9.42290021,9.25832329 9.23653097,9.25832329 C8.9569771,9.25832329 7.4388593,10.0830012 7.4388593,10.9898214 C7.4388593,11.5943682 8.14781797,16.9036838 9.56573533,26.9177682 Z" id="Path-23"></path>
                <path d="M13.3404321,21.6306967 L15.544842,17.4754232 L12.2756449,6.7522324 C10.9459917,7.14772057 10.281165,7.81378951 10.281165,8.75043923 C10.27853,8.67090551 11.2982857,12.9643247 13.3404321,21.6306967 Z" id="Path-24"></path>
                <path d="M16.527598,16.144116 L18.5346652,12.47025 L15.247119,4.73751661 C14.0992811,5.22738618 13.5253622,5.68563953 13.5253622,6.11227668 C13.5253622,6.53891382 14.5261074,9.88286026 16.527598,16.144116 Z" id="Path-25"></path>
                <path d="M16.8915217,18.0880457 L27.253004,10.0007591 C27.4109781,9.45106755 27.4899651,9.06269174 27.4899651,8.83563168 C27.4899651,8.14703164 27.253004,7.69339872 27.253004,7.69339872 C27.253004,7.69339872 24.5034581,9.77617502 19.0043661,13.9417276 L16.8915217,17.6260285 L16.8915217,18.0880457 Z" id="Path-26"></path>
                <path d="M19.9061702,12.1990981 L27.253004,6.7522324 C27.4911825,5.98132559 27.3833066,5.4439171 26.9293764,5.14000692 C26.9169038,5.09847495 25.0295854,6.47124707 21.2674212,9.25832329 L19.9061702,11.6346787 L19.9061702,12.1990981 Z" id="Path-27"></path>
                <path d="M19.2914755,10.9898214 L20.8223657,7.69339872 L18.5346652,3.1630916 C17.2522673,3.11917155 16.6110684,3.47691754 16.6110684,4.23632958 C16.5791673,4.28720624 17.3769332,6.42890602 19.0043661,10.6614289 L19.2914755,10.9898214 Z" id="Path-28"></path>
                <path d="M22.0722629,7.69339872 L26.5721087,3.99461353 C26.8551405,3.20571379 26.6545597,2.73640254 25.9703663,2.5866798 C25.9357069,2.58211128 24.9736386,3.29905689 23.0841615,4.73751661 L22.0722629,7.07465557 L22.0722629,7.69339872 Z" id="Path-29"></path>
                <path d="M21.4606264,6.49603207 L22.7738459,3.51881291 L21.720392,1.55985379 C20.5131894,1.62289615 19.8292359,1.96514993 19.6685314,2.58661512 C19.6849616,2.57617142 20.202514,3.76110003 21.2211887,6.14140097 L21.4606264,6.49603207 Z" id="Path-30"></path>
                <path d="M23.2917581,3.68717313 L25.5422207,1.84292306 C25.5422207,0.953358248 25.241338,0.340163712 24.6395726,0.00333944881 C24.5031582,-0.053351688 22.7738459,0.624605781 22.7738459,1.06006847 C22.7738459,1.35037693 22.9464833,1.98083221 23.2917581,2.95143431 L23.2917581,3.68717313 Z" id="Path-31"></path>
            </g>
        </g>
        <g id="Group-2-Copy-11" transform="translate(997.660799, 117.675890)" stroke="#FFFFFF">
            <g id="Group-2-Copy" transform="translate(33.500000, 31.500000) rotate(245.000000) translate(-33.500000, -31.500000) translate(11.000000, 6.000000)">
                <path d="M38.1166092,42.6338279 C31.2613699,31.8897016 20.8502971,19.427934 6.88339081,5.24852508" id="Path-59" transform="translate(22.500000, 23.941176) scale(-1, -1) rotate(25.000000) translate(-22.500000, -23.941176) "></path>
                <path d="M10.1326414,14.260502 C31.7270258,13.7510608 41.1697614,23.9105825 38.4608481,44.7390672 C38.872202,45.65145 6.86652664,50.0039181 9.3481208,15.2706436 C9.42907268,15.2243636 9.42972003,14.8881503 9.35006286,14.262004 L10.1326414,14.260502 Z" id="Path-60" transform="translate(24.062333, 29.823115) scale(-1, -1) rotate(25.000000) translate(-24.062333, -29.823115) "></path>
                <polyline id="Path-62" transform="translate(21.997275, 24.099059) scale(-1, -1) rotate(25.000000) translate(-21.997275, -24.099059) " points="13.6446141 31.8000775 28.5719276 30.7888201 30.3499364 16.3980404"></polyline>
                <polyline id="Path-64" transform="translate(23.614172, 29.143449) scale(-1, -1) rotate(25.000000) translate(-23.614172, -29.143449) " points="14.1864927 36.9424348 30.9204539 36.1110335 33.0418506 21.3444632"></polyline>
                <polyline id="Path-66" transform="translate(25.143131, 33.727897) scale(-1, -1) rotate(25.000000) translate(-25.143131, -33.727897) " points="15.9374019 41.2861771 32.2307769 40.2026515 34.3488604 26.1696165"></polyline>
                <polyline id="Path-68" transform="translate(26.317367, 37.658519) scale(-1, -1) rotate(25.000000) translate(-26.317367, -37.658519) " points="18.5927542 44.6030074 32.7940444 44.7300215 34.0419796 30.5870157"></polyline>
                <polyline id="Path-70" transform="translate(28.251288, 43.690847) scale(-1, -1) rotate(25.000000) translate(-28.251288, -43.690847) " points="23.1615881 48.0645206 32.8047389 47.3588838 33.340987 39.3171732"></polyline>
                <polyline id="Path-71" transform="translate(28.936971, 46.023489) scale(-1, -1) rotate(25.000000) translate(-28.936971, -46.023489) " points="25.2905292 48.7364407 32.5834123 48.8972182 32.5034757 43.149759"></polyline>
                <polyline id="Path-71-Copy" transform="translate(29.652211, 48.681586) scale(-1, -1) rotate(25.000000) translate(-29.652211, -48.681586) " points="27.630425 49.9425708 31.6739976 50.0858772 31.4617262 47.2772956"></polyline>
                <polyline id="Path-73" transform="translate(27.236214, 41.046265) scale(-1, -1) rotate(25.000000) translate(-27.236214, -41.046265) " points="20.9055261 46.9162866 32.6544959 46.4308497 33.5669021 35.1762428"></polyline>
            </g>
        </g>
        <g id="Group-2-Copy-12" transform="translate(855.000000, 221.500000) scale(-1, 1) rotate(86.000000) translate(-855.000000, -221.500000) translate(812.000000, 180.000000)" stroke="#FFFFFF">
            <g id="Group-2-Copy" transform="translate(42.935762, 41.587594) rotate(245.000000) translate(-42.935762, -41.587594) translate(13.435762, 8.087594)">
                <path d="M50.1036752,56.1790206 C41.0782736,42.0212141 27.377316,25.5962337 9.00080241,6.90407935" id="Path-59" transform="translate(29.552239, 31.541550) scale(-1, -1) rotate(25.000000) translate(-29.552239, -31.541550) "></path>
                <path d="M13.2772847,18.7821118 C41.654806,18.1446214 54.0796696,31.5366466 50.5518756,58.9581872 C51.0938647,60.1601936 9.04025122,65.8418943 12.2478635,20.1109964 C12.3541752,20.0501824 12.3545073,19.6074777 12.2488597,18.7828822 L13.2772847,18.7821118 Z" id="Path-60" transform="translate(31.605115, 39.293457) scale(-1, -1) rotate(25.000000) translate(-31.605115, -39.293457) "></path>
                <polyline id="Path-62" transform="translate(28.891944, 31.749554) scale(-1, -1) rotate(25.000000) translate(-28.891944, -31.749554) " points="17.9271555 41.8769157 37.542357 40.5683787 39.8567317 21.622192"></polyline>
                <polyline id="Path-64" transform="translate(31.015628, 38.395338) scale(-1, -1) rotate(25.000000) translate(-31.015628, -38.395338) " points="18.6382545 48.6500385 40.6279435 47.5811125 43.3930024 28.1406366"></polyline>
                <polyline id="Path-66" transform="translate(33.023814, 44.435166) scale(-1, -1) rotate(25.000000) translate(-33.023814, -44.435166) " points="20.9377445 54.3732622 42.3480471 52.971674 45.1098836 34.4970691"></polyline>
                <polyline id="Path-68" transform="translate(34.570812, 49.603718) scale(-1, -1) rotate(25.000000) translate(-34.570812, -49.603718) " points="24.4303058 58.7249414 43.0931581 58.9140931 44.7113177 40.2933428"></polyline>
                <polyline id="Path-70" transform="translate(37.106169, 57.560957) scale(-1, -1) rotate(25.000000) translate(-37.106169, -57.560957) " points="30.424276 63.312101 43.095755 62.3978358 43.7880614 51.8098131"></polyline>
                <polyline id="Path-71" transform="translate(38.005213, 60.627257) scale(-1, -1) rotate(25.000000) translate(-38.005213, -60.627257) " points="33.2131103 64.1883235 42.7973166 64.4112758 42.6834016 56.8432375"></polyline>
                <polyline id="Path-71-Copy" transform="translate(38.945574, 64.132511) scale(-1, -1) rotate(25.000000) translate(-38.945574, -64.132511) " points="36.2885284 65.7868271 41.6026191 65.9817622 41.3193296 62.2832603"></polyline>
                <polyline id="Path-73" transform="translate(35.772938, 54.076825) scale(-1, -1) rotate(25.000000) translate(-35.772938, -54.076825) " points="27.4625057 61.7963575 42.901691 61.175287 44.08337 46.3572923"></polyline>
            </g>
        </g>
        <g id="Group-Copy-5" transform="translate(935.000000, 244.000000)">
            <g id="Group-2-Copy" transform="translate(43.500000, 41.500000) scale(-1, -1) rotate(245.000000) translate(-43.500000, -41.500000) translate(14.000000, 8.000000)">
                <path d="M50.1036752,56.1790206 C41.0782736,42.0212141 27.377316,25.5962337 9.00080241,6.90407935" id="Path-59" stroke="#FFFFFF" transform="translate(29.552239, 31.541550) scale(-1, -1) rotate(25.000000) translate(-29.552239, -31.541550) "></path>
                <path d="" id="Path-2" stroke="#979797"></path>
                <path d="M13.2772847,18.7821118 C41.654806,18.1446214 54.0796696,31.5366466 50.5518756,58.9581872 C50.8838468,59.6944226 35.2355331,62.1112725 23.7954854,53.3652912 C16.558067,47.8322438 11.0049309,37.8314753 12.2478635,20.1109964 C12.3541752,20.0501824 12.3545073,19.6074777 12.2488597,18.7828822 L13.2772847,18.7821118 Z" id="Path-60" stroke="#012E05" fill="#386943" transform="translate(31.605115, 39.293457) scale(-1, -1) rotate(25.000000) translate(-31.605115, -39.293457) "></path>
                <polyline id="Path-62" stroke="#002A02" transform="translate(28.891944, 31.749554) scale(-1, -1) rotate(25.000000) translate(-28.891944, -31.749554) " points="17.9271555 41.8769157 37.542357 40.5683787 39.8567317 21.622192"></polyline>
                <polyline id="Path-64" stroke="#002A02" transform="translate(31.015628, 38.395338) scale(-1, -1) rotate(25.000000) translate(-31.015628, -38.395338) " points="18.6382545 48.6500385 40.6279435 47.5811125 43.3930024 28.1406366"></polyline>
                <polyline id="Path-66" stroke="#002A02" transform="translate(32.696225, 44.276013) scale(-1, -1) rotate(25.000000) translate(-32.696225, -44.276013) " points="20.9743129 54.2199056 41.6563003 52.8067251 44.4181368 34.3321201"></polyline>
                <polyline id="Path-68" stroke="#002A02" transform="translate(34.570812, 49.603718) scale(-1, -1) rotate(25.000000) translate(-34.570812, -49.603718) " points="24.4303058 58.7249414 43.0931581 58.9140931 44.7113177 40.2933428"></polyline>
                <polyline id="Path-70" stroke="#002A02" transform="translate(37.106169, 57.560957) scale(-1, -1) rotate(25.000000) translate(-37.106169, -57.560957) " points="30.424276 63.312101 43.095755 62.3978358 43.7880614 51.8098131"></polyline>
                <polyline id="Path-71" stroke="#002A02" transform="translate(38.005213, 60.627257) scale(-1, -1) rotate(25.000000) translate(-38.005213, -60.627257) " points="33.2131103 64.1883235 42.7973166 64.4112758 42.6834016 56.8432375"></polyline>
                <polyline id="Path-73" stroke="#002A02" transform="translate(35.772938, 54.076825) scale(-1, -1) rotate(25.000000) translate(-35.772938, -54.076825) " points="27.4625057 61.7963575 42.901691 61.175287 44.08337 46.3572923"></polyline>
                <polyline id="Path-71-Copy" stroke="#002A02" transform="translate(39.394981, 63.004040) scale(-1, -1) rotate(25.000000) translate(-39.394981, -63.004040) " points="36.7379359 64.7932142 42.0520266 65.0040402 41.7687371 61.0040402"></polyline>
            </g>
            <path d="M18.803735,64.909542 C38.2173598,43.4304704 51.5506931,30.7638038 58.803735,26.909542" id="Path-148" stroke="#002A02"></path>
        </g>
        <g id="Group-Copy-6" transform="translate(846.500000, 199.000000) scale(-1, -1) rotate(-85.000000) translate(-846.500000, -199.000000) translate(812.000000, 166.000000)">
            <g id="Group-2-Copy" transform="translate(34.445922, 33.284249) scale(-1, -1) rotate(245.000000) translate(-34.445922, -33.284249) translate(10.945922, 6.284249)">
                <path d="M40.0720534,45.4781618 C32.8603693,34.0151198 21.9847475,20.6705127 7.44518798,5.44434054" id="Path-59" stroke="#FFFFFF" transform="translate(23.758621, 25.461251) scale(-1, -1) rotate(25.000000) translate(-23.758621, -25.461251) "></path>
                <path d="" id="Path-2" stroke="#979797"></path>
                <path d="M10.8423882,15.1133188 C32.8753876,15.0063439 42.7166966,25.9046263 40.366315,47.8081661 C40.6346375,48.4023153 28.5142646,50.1147974 19.503951,42.950138 C13.8036767,38.4174962 9.34814739,30.3319391 10.0616825,16.1625903 C10.1433949,16.1154139 10.1373596,15.7609891 10.0435765,15.099316 L10.8423882,15.1133188 Z" id="Path-60" stroke="#012E05" fill="#386943" transform="translate(25.346311, 31.760401) scale(-1, -1) rotate(25.000000) translate(-25.346311, -31.760401) "></path>
                <polyline id="Path-62" stroke="#002A02" transform="translate(23.250117, 25.629158) scale(-1, -1) rotate(25.000000) translate(-23.250117, -25.629158) " points="14.8772524 33.5812554 30.0946356 32.81248 31.6229826 17.6770604"></polyline>
                <polyline id="Path-64" stroke="#002A02" transform="translate(24.885599, 30.993827) scale(-1, -1) rotate(25.000000) translate(-24.885599, -30.993827) " points="15.4173268 39.0277913 32.4824845 38.4846029 34.353871 22.959862"></polyline>
                <polyline id="Path-66" stroke="#002A02" transform="translate(26.179851, 35.740878) scale(-1, -1) rotate(25.000000) translate(-26.179851, -35.740878) " points="17.2162869 43.5353271 33.2608019 42.6979389 35.1434157 27.9464286"></polyline>
                <polyline id="Path-68" stroke="#002A02" transform="translate(27.680778, 39.921901) scale(-1, -1) rotate(25.000000) translate(-27.680778, -39.921901) " points="19.9352104 46.9475512 34.4341527 47.3642874 35.4263452 32.4795152"></polyline>
                <polyline id="Path-70" stroke="#002A02" transform="translate(29.576015, 46.464869) scale(-1, -1) rotate(25.000000) translate(-29.576015, -46.464869) " points="24.467652 50.9742493 34.2971471 50.4224195 34.684378 41.9554886"></polyline>
                <polyline id="Path-71" stroke="#002A02" transform="translate(30.249515, 48.857005) scale(-1, -1) rotate(25.000000) translate(-30.249515, -48.857005) " points="26.5256939 51.5725615 33.9733354 51.8873013 33.7772693 45.8267095"></polyline>
                <polyline id="Path-73" stroke="#002A02" transform="translate(28.549274, 43.652377) scale(-1, -1) rotate(25.000000) translate(-28.549274, -43.652377) " points="22.2039348 49.7144988 34.1873963 49.436745 34.8946132 37.5902547"></polyline>
                <polyline id="Path-71-Copy" stroke="#002A02" transform="translate(31.329366, 50.814894) scale(-1, -1) rotate(25.000000) translate(-31.329366, -50.814894) " points="29.2640247 52.1737776 33.3947083 52.4181073 33.117803 49.2116797"></polyline>
            </g>
            <path d="M15,53 C30.0455592,35.4775995 40.3788925,25.1442662 46,22" id="Path-148" stroke="#002A02"></path>
        </g>
        <g id="Group-Copy-7" transform="translate(1037.660799, 413.675890) scale(-1, 1) translate(-1037.660799, -413.675890) translate(1012.660799, 389.675890)">
            <g id="Group-2-Copy" transform="translate(24.635434, 23.861710) scale(-1, -1) rotate(245.000000) translate(-24.635434, -23.861710) translate(7.635434, 4.861710)">
                <path d="M28.259245,31.8227922 C23.1545402,23.802893 15.4112865,14.49495 5.0294838,3.89896315" id="Path-59" stroke="#012E05" transform="translate(16.644364, 17.860878) scale(-1, -1) rotate(25.000000) translate(-16.644364, -17.860878) "></path>
                <path d="" id="Path-2" stroke="#979797"></path>
                <path d="M7.44685278,10.6302394 C23.4442925,10.3027127 30.4645929,17.8933604 28.5077542,33.4021825 C28.6957663,33.8190736 19.8766534,35.1680755 13.416977,30.2069412 C9.33033478,27.0683349 6.18801432,21.4042109 6.86805441,11.380816 C6.92791799,11.3465363 6.92758859,11.0960894 6.86706621,10.6294752 L7.44685278,10.6302394 Z" id="Path-60" stroke="#012E05" fill="#386943" transform="translate(17.801424, 22.253223) scale(-1, -1) rotate(25.000000) translate(-17.801424, -22.253223) "></path>
                <polyline id="Path-62" stroke="#002A02" transform="translate(16.272474, 17.978663) scale(-1, -1) rotate(25.000000) translate(-16.272474, -17.978663) " points="10.1027552 23.6951281 21.1595441 22.9777511 22.4421928 12.262198"></polyline>
                <polyline id="Path-64" stroke="#002A02" transform="translate(17.468572, 21.741938) scale(-1, -1) rotate(25.000000) translate(-17.468572, -21.741938) " points="10.5026392 27.5287932 22.8983548 26.94974 24.4345055 15.9550831"></polyline>
                <polyline id="Path-66" stroke="#002A02" transform="translate(18.415115, 25.071959) scale(-1, -1) rotate(25.000000) translate(-18.415115, -25.071959) " points="11.8183442 30.6837483 23.4764249 29.9084172 25.0118861 19.4601699"></polyline>
                <polyline id="Path-68" stroke="#002A02" transform="translate(19.475619, 28.079030) scale(-1, -1) rotate(25.000000) translate(-19.475619, -28.079030) " points="13.7695359 33.2163741 24.2911737 33.3451597 25.1817021 22.8129002"></polyline>
                <polyline id="Path-70" stroke="#002A02" transform="translate(20.898877, 32.594759) scale(-1, -1) rotate(25.000000) translate(-20.898877, -32.594759) " points="17.138587 35.8405038 24.2812254 35.3380717 24.6591662 29.3490138"></polyline>
                <polyline id="Path-71" stroke="#002A02" transform="translate(21.403686, 34.324278) scale(-1, -1) rotate(25.000000) translate(-21.403686, -34.324278) " points="18.7019479 36.3277302 24.1054246 36.4650432 24.0323721 32.1835128"></polyline>
                <polyline id="Path-73" stroke="#002A02" transform="translate(20.147977, 30.621817) scale(-1, -1) rotate(25.000000) translate(-20.147977, -30.621817) " points="15.4718744 34.9792197 24.175184 34.6458838 24.8240786 26.2644133"></polyline>
                <polyline id="Path-71-Copy" stroke="#002A02" transform="translate(22.187215, 35.673392) scale(-1, -1) rotate(25.000000) translate(-22.187215, -35.673392) " points="20.6891491 36.6795291 23.6852804 36.8049991 23.5209046 34.5417849"></polyline>
            </g>
            <path d="M10,37 C21.1628343,24.5647481 28.8295009,17.2314147 33,15" id="Path-148" stroke="#305A32"></path>
        </g>
        <g id="Group-Copy-8" transform="translate(1137.402443, 500.071832) scale(-1, 1) rotate(-42.000000) translate(-1137.402443, -500.071832) translate(1117.902443, 481.071832)">
            <g id="Group-2-Copy" transform="translate(19.703848, 18.782281) scale(-1, -1) rotate(245.000000) translate(-19.703848, -18.782281) translate(6.203848, 3.782281)">
                <path d="M22.5455442,25.1767516 C18.4949765,18.8320215 12.3416081,11.4740948 4.08543882,3.10297144" id="Path-59" stroke="#012E05" transform="translate(13.315492, 14.139862) scale(-1, -1) rotate(25.000000) translate(-13.315492, -14.139862) "></path>
                <path d="" id="Path-2" stroke="#979797"></path>
                <path d="M6.0057377,8.42402473 C18.7809245,8.11318382 24.3624878,14.1113366 22.7504274,26.4184832 C22.8992266,26.7485424 15.8527567,27.8466593 10.7104653,23.9323289 C7.45725198,21.4559714 4.96615164,16.9734727 5.54116475,9.02119575 C5.58907593,8.99381559 5.58961229,8.79517339 5.54277382,8.42526916 L6.0057377,8.42402473 Z" id="Path-60" stroke="#012E05" fill="#386943" transform="translate(14.239824, 17.612997) scale(-1, -1) rotate(25.000000) translate(-14.239824, -17.612997) "></path>
                <polyline id="Path-62" stroke="#002A02" transform="translate(13.017979, 14.233108) scale(-1, -1) rotate(25.000000) translate(-13.017979, -14.233108) " points="8.07314097 18.7868442 16.9044051 18.1825614 17.9628174 9.67937226"></polyline>
                <polyline id="Path-64" stroke="#002A02" transform="translate(13.974858, 17.212368) scale(-1, -1) rotate(25.000000) translate(-13.974858, -17.212368) " points="8.39400854 21.8244752 18.2939797 21.325631 19.5557072 12.6002601"></polyline>
                <polyline id="Path-66" stroke="#002A02" transform="translate(14.732092, 19.848634) scale(-1, -1) rotate(25.000000) translate(-14.732092, -19.848634) " points="9.44658186 24.3207092 18.7581695 23.6685405 20.0176023 15.3765594"></polyline>
                <polyline id="Path-68" stroke="#002A02" transform="translate(15.573212, 22.244364) scale(-1, -1) rotate(25.000000) translate(-15.573212, -22.244364) " points="11.0002356 26.3540789 19.4014745 26.4226423 20.1461892 18.0660851"></polyline>
                <polyline id="Path-70" stroke="#002A02" transform="translate(16.719101, 25.804184) scale(-1, -1) rotate(25.000000) translate(-16.719101, -25.804184) " points="13.7061065 28.3905654 19.4111898 27.9692606 19.7320961 23.2178027"></polyline>
                <polyline id="Path-71" stroke="#002A02" transform="translate(17.125348, 27.183892) scale(-1, -1) rotate(25.000000) translate(-17.125348, -27.183892) " points="14.9681977 28.7900706 19.2824983 28.881734 19.2378311 25.4860497"></polyline>
                <polyline id="Path-73" stroke="#002A02" transform="translate(16.118381, 24.242271) scale(-1, -1) rotate(25.000000) translate(-16.118381, -24.242271) " points="12.3705512 27.7132932 19.3213089 27.4211264 19.8662113 20.7712496"></polyline>
                <polyline id="Path-71-Copy" stroke="#002A02" transform="translate(17.750954, 28.246973) scale(-1, -1) rotate(25.000000) translate(-17.750954, -28.246973) " points="16.5549313 29.0542967 18.9469765 29.1442506 18.8229444 27.3496954"></polyline>
            </g>
            <path d="M8.23098381,29.6338901 C16.967115,20.0248317 22.967115,14.3581651 26.2309838,12.6338901" id="Path-148" stroke="#002A02"></path>
        </g>
        <g id="Group-Copy-9" transform="translate(1099.660799, 265.675890) scale(-1, 1) rotate(37.000000) translate(-1099.660799, -265.675890) translate(1074.660799, 241.675890)">
            <g id="Group-2-Copy" transform="translate(24.635434, 23.861710) scale(-1, -1) rotate(245.000000) translate(-24.635434, -23.861710) translate(7.635434, 4.861710)">
                <path d="M28.259245,31.8227922 C23.1545402,23.802893 15.4112865,14.49495 5.0294838,3.89896315" id="Path-59" stroke="#012E05" transform="translate(16.644364, 17.860878) scale(-1, -1) rotate(25.000000) translate(-16.644364, -17.860878) "></path>
                <path d="" id="Path-2" stroke="#979797"></path>
                <path d="M7.44685278,10.6302394 C23.4442925,10.3027127 30.4645929,17.8933604 28.5077542,33.4021825 C28.6957663,33.8190736 19.8766534,35.1680755 13.416977,30.2069412 C9.33033478,27.0683349 6.18801432,21.4042109 6.86805441,11.380816 C6.92791799,11.3465363 6.92758859,11.0960894 6.86706621,10.6294752 L7.44685278,10.6302394 Z" id="Path-60" stroke="#012E05" fill="#386943" transform="translate(17.801424, 22.253223) scale(-1, -1) rotate(25.000000) translate(-17.801424, -22.253223) "></path>
                <polyline id="Path-62" stroke="#002A02" transform="translate(16.272474, 17.978663) scale(-1, -1) rotate(25.000000) translate(-16.272474, -17.978663) " points="10.1027552 23.6951281 21.1595441 22.9777511 22.4421928 12.262198"></polyline>
                <polyline id="Path-64" stroke="#002A02" transform="translate(17.468572, 21.741938) scale(-1, -1) rotate(25.000000) translate(-17.468572, -21.741938) " points="10.5026392 27.5287932 22.8983548 26.94974 24.4345055 15.9550831"></polyline>
                <polyline id="Path-66" stroke="#002A02" transform="translate(18.415115, 25.071959) scale(-1, -1) rotate(25.000000) translate(-18.415115, -25.071959) " points="11.8183442 30.6837483 23.4764249 29.9084172 25.0118861 19.4601699"></polyline>
                <polyline id="Path-68" stroke="#002A02" transform="translate(19.475619, 28.079030) scale(-1, -1) rotate(25.000000) translate(-19.475619, -28.079030) " points="13.7695359 33.2163741 24.2911737 33.3451597 25.1817021 22.8129002"></polyline>
                <polyline id="Path-70" stroke="#002A02" transform="translate(20.898877, 32.594759) scale(-1, -1) rotate(25.000000) translate(-20.898877, -32.594759) " points="17.138587 35.8405038 24.2812254 35.3380717 24.6591662 29.3490138"></polyline>
                <polyline id="Path-71" stroke="#002A02" transform="translate(21.403686, 34.324278) scale(-1, -1) rotate(25.000000) translate(-21.403686, -34.324278) " points="18.7019479 36.3277302 24.1054246 36.4650432 24.0323721 32.1835128"></polyline>
                <polyline id="Path-73" stroke="#002A02" transform="translate(20.147977, 30.621817) scale(-1, -1) rotate(25.000000) translate(-20.147977, -30.621817) " points="15.4718744 34.9792197 24.175184 34.6458838 24.8240786 26.2644133"></polyline>
                <polyline id="Path-71-Copy" stroke="#002A02" transform="translate(22.187215, 35.673392) scale(-1, -1) rotate(25.000000) translate(-22.187215, -35.673392) " points="20.6891491 36.6795291 23.6852804 36.8049991 23.5209046 34.5417849"></polyline>
            </g>
            <path d="M10,37 C21.1628343,24.5647481 28.8295009,17.2314147 33,15" id="Path-148" stroke="#002A02"></path>
        </g>
        <g id="Group-2-Copy-13" transform="translate(984.660799, 113.675890)" stroke="#FFFFFF">
            <g id="Group-2-Copy" transform="translate(27.512506, 29.188297) rotate(197.000000) translate(-27.512506, -29.188297) translate(6.512506, 5.188297)">
                <path d="M35.983282,39.6878785 C29.5063586,29.6881599 19.5972602,18.1361133 6.25598679,5.03173841" id="Path-59" transform="translate(21.119634, 22.359808) scale(-1, -1) rotate(25.000000) translate(-21.119634, -22.359808) "></path>
                <path d="M9.34246813,13.3924497 C30.3918315,12.5056844 39.400801,21.905573 36.3693768,41.5921156 C36.7529907,42.4444989 5.48738804,47.1501711 8.55908113,14.3595043 C8.63882511,14.3143511 8.64578485,13.997382 8.57996038,13.4085972 L9.34246813,13.3924497 Z" id="Path-60" transform="translate(22.644234, 27.823588) scale(-1, -1) rotate(25.000000) translate(-22.644234, -27.823588) "></path>
                <polyline id="Path-62" transform="translate(20.625408, 22.507262) scale(-1, -1) rotate(25.000000) translate(-20.625408, -22.507262) " points="12.3423022 29.924445 26.9052722 28.6901084 28.9085143 15.0900799"></polyline>
                <polyline id="Path-64" transform="translate(22.214971, 27.218459) scale(-1, -1) rotate(25.000000) translate(-22.214971, -27.218459) " points="12.8826126 34.7482346 29.2024442 33.649444 31.5473291 19.6886839"></polyline>
                <polyline id="Path-66" transform="translate(23.718083, 31.500094) scale(-1, -1) rotate(25.000000) translate(-23.718083, -31.500094) " points="14.6065053 38.7987721 30.5018124 37.4705912 32.8296608 24.2014161"></polyline>
                <polyline id="Path-68" transform="translate(24.846083, 35.224845) scale(-1, -1) rotate(25.000000) translate(-24.846083, -35.224845) " points="17.1879405 41.9768742 31.0221064 41.8292825 32.5042248 28.4728151"></polyline>
                <polyline id="Path-70" transform="translate(26.773696, 40.804969) scale(-1, -1) rotate(25.000000) translate(-26.773696, -40.804969) " points="21.7323836 45.0239546 31.1411515 44.1772059 31.8150076 36.5859837"></polyline>
                <polyline id="Path-71" transform="translate(27.453018, 43.060882) scale(-1, -1) rotate(25.000000) translate(-27.453018, -43.060882) " points="23.8865867 45.7549835 30.9891394 45.7692682 31.0194484 40.3524952"></polyline>
                <polyline id="Path-71-Copy" transform="translate(28.158432, 45.509343) scale(-1, -1) rotate(25.000000) translate(-28.158432, -45.509343) " points="26.1899206 46.7722259 30.126944 46.8312066 29.9729943 44.1874803"></polyline>
                <polyline id="Path-73" transform="translate(25.775782, 38.335067) scale(-1, -1) rotate(25.000000) translate(-25.775782, -38.335067) " points="19.4971861 43.9880599 30.9535438 43.3092584 32.0543781 32.6820751"></polyline>
            </g>
        </g>
        <g id="Group-10-Copy-3" transform="translate(995.267130, 352.846722) scale(1, -1) rotate(-17.000000) translate(-995.267130, -352.846722) translate(984.767130, 329.346722)" stroke="#FFFFFF">
            <path d="M20.9878066,46.6992757 C6.4235319,41.5816296 3.22272669,26.2482963 11.385391,0.699275677" id="Path-32"></path>
            <path d="M11.8749435,41.5953317 C23.9241886,27.626586 23.4951258,13.9602432 10.5877549,0.596303604 C10.675385,0.43547419 -9.64505857,20.2654127 7.44021197,37.8338928 C7.41035282,38.0522707 8.88859666,39.3060837 11.8749435,41.5953317 Z" id="Path-33"></path>
            <polyline id="Path-34" points="4.28946502 33.2027283 10.8176087 39.4454568 18.289465 32.4454568"></polyline>
            <polyline id="Path-35" points="20.9630523 25.2472231 8.52002574 35.2472231 1.96305226 27.7761032"></polyline>
            <polyline id="Path-36" points="0.387963039 24.0214995 6.32930834 30.7129225 20.387963 19.7129225"></polyline>
            <polyline id="Path-37" points="19.6229927 15.4491459 6.93528051 26.4491459 0.622992724 18.7589387"></polyline>
            <polyline id="Path-38" points="18.6681413 12.4558934 7.42566288 22.4558934 2.66814131 15.5535526"></polyline>
            <polyline id="Path-39" points="17.7351375 9.31645502 7.78697952 18.316455 3.73513752 12.1029948"></polyline>
            <polyline id="Path-40" points="15.8239814 7.03083082 7.67362025 13.0308308 4.82398136 9.85605055"></polyline>
        </g>
        <g id="Group-10-Copy-4" transform="translate(1136.660799, 357.175890) scale(-1, -1) rotate(-15.000000) translate(-1136.660799, -357.175890) translate(1128.660799, 339.675890)" stroke="#FFFFFF">
            <path d="M15.0445973,34.1801663 C3.62002174,30.3775947 1.10923135,18.9844469 7.51222614,0.000722908455" id="Path-32"></path>
            <path d="M8.48048786,30.4968167 C17.5442899,20.1065172 17.221536,9.9411526 7.51222614,0.000722908454 C7.57814411,-0.118905998 -7.70750043,14.631094 5.14455036,27.6989651 C5.12208942,27.8614 6.23406858,28.7940172 8.48048786,30.4968167 Z" id="Path-33"></path>
            <polyline id="Path-34" points="2.40089801 23.9855862 7.52229867 28.3871975 13.3840523 23.4516506"></polyline>
            <polyline id="Path-35" points="15.0445973 17.7460842 5.48439411 24.9316311 0.446552309 19.5632229"></polyline>
            <polyline id="Path-36" points="2.27373675e-13 17.0080471 4.46925739 21.8112698 15.0445973 13.9152737"></polyline>
            <polyline id="Path-37" points="14.388691 10.8857327 4.78029254 19.441885 2.27373675e-13 13.4601956"></polyline>
            <polyline id="Path-38" points="13.3840523 8.52074244 4.65456012 16.1555081 0.960468325 10.8857327"></polyline>
            <polyline id="Path-39" points="12.5713082 6.55858424 4.88136676 12.8959866 1.74928668 8.52074244"></polyline>
            <polyline id="Path-40" points="11.0515328 4.37425806 5.09035114 9.01317408 3.00612262 6.55858424"></polyline>
        </g>
        <g id="Group-2-Copy-14" transform="translate(1104.660799, 334.675890) rotate(180.000000) translate(-1104.660799, -334.675890) translate(1089.660799, 317.675890)" stroke="#FFFFFF">
            <path d="M25,28 C20.6071668,21.1052719 13.9405001,13.1052719 5,4" id="Path-59" transform="translate(15.000000, 16.000000) scale(-1, -1) rotate(25.000000) translate(-15.000000, -16.000000) "></path>
            <path d="M7.08101398,9.78535887 C20.8764236,9.48540296 26.9216152,16.0086199 25.2165889,29.3550098 C25.4805135,29.9402947 5.03835438,32.6905772 6.58104873,10.4318298 C6.63270964,10.4022668 6.63270964,10.1867765 6.58104873,9.78535887 L7.08101398,9.78535887 Z" id="Path-60" transform="translate(15.997915, 19.775469) scale(-1, -1) rotate(25.000000) translate(-15.997915, -19.775469) "></path>
            <polyline id="Path-62" transform="translate(14.679112, 16.101283) scale(-1, -1) rotate(25.000000) translate(-14.679112, -16.101283) " points="9.35230791 21.0268672 18.8876988 20.3970782 20.0059158 11.175699"></polyline>
            <polyline id="Path-64" transform="translate(15.711173, 19.337307) scale(-1, -1) rotate(25.000000) translate(-15.711173, -19.337307) " points="9.69769175 24.3243593 20.3875196 23.8120689 21.7246551 14.3502544"></polyline>
            <polyline id="Path-66" transform="translate(16.687105, 22.278273) scale(-1, -1) rotate(25.000000) translate(-16.687105, -22.278273) " points="10.8151246 27.1113221 21.2231643 26.4368942 22.5590854 17.4452247"></polyline>
            <polyline id="Path-68" transform="translate(17.440379, 24.791921) scale(-1, -1) rotate(25.000000) translate(-17.440379, -24.791921) " points="12.5139651 29.2246564 21.5869206 29.3235333 22.3667935 20.2603092"></polyline>
            <polyline id="Path-70" transform="translate(18.671035, 28.669600) scale(-1, -1) rotate(25.000000) translate(-18.671035, -28.669600) " points="15.4247508 31.4665833 21.5846168 31.0261774 21.9173184 25.8726166"></polyline>
            <polyline id="Path-71" transform="translate(19.107465, 30.160539) scale(-1, -1) rotate(25.000000) translate(-19.107465, -30.160539) " points="16.7777591 31.8904452 21.4371719 32.0024641 21.3790327 28.3186133"></polyline>
            <polyline id="Path-71-Copy" transform="translate(19.564751, 31.868378) scale(-1, -1) rotate(25.000000) translate(-19.564751, -31.868378) " points="18.2730017 32.6717446 20.8565012 32.7685688 20.7174322 30.9681871"></polyline>
            <polyline id="Path-73" transform="translate(18.023115, 26.973075) scale(-1, -1) rotate(25.000000) translate(-18.023115, -26.973075) " points="13.9858401 30.7275955 21.4913246 30.4309139 22.0603906 23.2185555"></polyline>
        </g>
        <g id="Group-2-Copy-15" transform="translate(1064.953692, 369.190608) rotate(-45.000000) translate(-1064.953692, -369.190608) translate(1045.453692, 346.690608)" stroke="#FFFFFF">
            <path d="M32.9539019,37.8782425 C26.9802992,28.3012035 18.0110312,17.1274732 6.04609806,4.35705164" id="Path-59" transform="translate(19.500000, 21.117647) scale(-1, -1) rotate(25.000000) translate(-19.500000, -21.117647) "></path>
            <path d="M8.84891058,12.4687285 C26.7495301,12.599433 34.8540638,21.7343562 33.1625119,39.8734981 C33.528104,40.6822162 7.09304523,43.633896 8.22504054,13.3310163 C8.29096163,13.2927111 8.28252854,12.9987599 8.19974126,12.4491626 L8.84891058,12.4687285 Z" id="Path-60" transform="translate(20.785636, 26.395427) scale(-1, -1) rotate(25.000000) translate(-20.785636, -26.395427) "></path>
            <polyline id="Path-62" transform="translate(19.089205, 21.257656) scale(-1, -1) rotate(25.000000) translate(-19.089205, -21.257656) " points="12.3654893 27.7682048 24.7218697 27.2822691 25.8129214 14.7471073"></polyline>
            <polyline id="Path-64" transform="translate(20.410430, 25.730983) scale(-1, -1) rotate(25.000000) translate(-20.410430, -25.730983) " points="12.7975174 32.2985083 26.6574503 32.0180312 28.0233428 19.1634578"></polyline>
            <polyline id="Path-66" transform="translate(21.659798, 29.796437) scale(-1, -1) rotate(25.000000) translate(-21.659798, -29.796437) " points="14.2245882 36.1594224 27.712294 35.6467452 29.0950086 23.4334512"></polyline>
            <polyline id="Path-68" transform="translate(22.700907, 33.111104) scale(-1, -1) rotate(25.000000) translate(-22.700907, -33.111104) " points="16.4797161 38.7874918 28.2641729 39.2774351 28.9220983 26.9447725"></polyline>
            <polyline id="Path-70" transform="translate(24.199586, 38.631506) scale(-1, -1) rotate(25.000000) translate(-24.199586, -38.631506) " points="20.0939756 42.3198411 28.0748884 41.9601445 28.3051959 34.9431704"></polyline>
            <polyline id="Path-71" transform="translate(24.733003, 40.581374) scale(-1, -1) rotate(25.000000) translate(-24.733003, -40.581374) " points="21.7058534 42.7599405 27.7601533 43.0950896 27.5404983 38.0676578"></polyline>
            <polyline id="Path-71-Copy" transform="translate(25.333708, 42.995909) scale(-1, -1) rotate(25.000000) translate(-25.333708, -42.995909) " points="23.654568 43.9934023 27.0128474 44.2265845 26.7618193 41.7652337"></polyline>
            <polyline id="Path-73" transform="translate(23.370132, 36.286310) scale(-1, -1) rotate(25.000000) translate(-23.370132, -36.286310) " points="18.2749486 41.2498704 28.008676 41.1388888 28.4653161 31.32275"></polyline>
        </g>
        <g id="Group-2-Copy-16" transform="translate(1059.660799, 422.675890)" stroke="#FFFFFF">
            <path d="M37.8441233,40.6063788 C31.0291441,30.369546 20.4663952,18.6319601 6.15587668,5.39362117" id="Path-59" transform="translate(22.000000, 23.000000) scale(-1, -1) rotate(25.000000) translate(-22.000000, -23.000000) "></path>
            <path d="M9.43326307,13.9286827 C32.7971934,12.2333269 42.4406015,21.749736 38.3634876,42.4779101 C38.7576499,43.3566415 3.9306987,49.4236364 8.52971627,14.9700134 C8.61975099,14.9198199 8.63900976,14.5876039 8.58749257,13.9733655 L9.43326307,13.9286827 Z" id="Path-60" transform="translate(23.691653, 28.586601) scale(-1, -1) rotate(25.000000) translate(-23.691653, -28.586601) "></path>
            <polyline id="Path-62" transform="translate(21.443794, 23.151925) scale(-1, -1) rotate(25.000000) translate(-21.443794, -23.151925) " points="11.9924518 31.2216398 28.1793628 29.3985144 30.8951359 15.0822095"></polyline>
            <polyline id="Path-64" transform="translate(23.232701, 28.005960) scale(-1, -1) rotate(25.000000) translate(-23.232701, -28.005960) " points="12.6142408 36.2318093 30.7435638 34.4866544 33.8511604 19.7801114"></polyline>
            <polyline id="Path-66" transform="translate(24.924315, 32.417410) scale(-1, -1) rotate(25.000000) translate(-24.924315, -32.417410) " points="14.558991 40.3931891 32.2261152 38.4232549 35.2896397 24.4416311"></polyline>
            <polyline id="Path-68" transform="translate(26.193775, 36.255091) scale(-1, -1) rotate(25.000000) translate(-26.193775, -36.255091) " points="17.4593844 43.6054283 32.7988904 42.9469974 34.9281662 28.9047547"></polyline>
            <polyline id="Path-70" transform="translate(28.363127, 42.004400) scale(-1, -1) rotate(25.000000) translate(-28.363127, -42.004400) " points="22.6215514 46.6065649 33.0813013 45.3770837 34.1047019 37.4022348"></polyline>
            <polyline id="Path-71" transform="translate(29.124244, 44.335379) scale(-1, -1) rotate(25.000000) translate(-29.124244, -44.335379) " points="25.0727415 47.2942926 32.9448657 47.0505691 33.1757467 41.3764652"></polyline>
            <polyline id="Path-71-Copy" transform="translate(29.952312, 46.896749) scale(-1, -1) rotate(25.000000) translate(-29.952312, -46.896749) " points="27.7714397 48.3191469 32.1331853 48.2375263 32.0588315 45.4743521"></polyline>
            <polyline id="Path-73" transform="translate(27.240067, 39.459613) scale(-1, -1) rotate(25.000000) translate(-27.240067, -39.459613) " points="20.074827 45.6086807 32.7980591 44.4805153 34.4053063 33.3105457"></polyline>
        </g>
        <g id="Group-2-Copy-17" transform="translate(1070.328539, 549.667682) rotate(38.000000) translate(-1070.328539, -549.667682) translate(1053.828539, 530.667682)" stroke="#FFFFFF">
            <path d="M28.1797558,31.2532644 C23.2186901,23.3083399 15.7655195,14.0414577 5.82024417,3.45261792" id="Path-59" transform="translate(17.000000, 17.352941) scale(-1, -1) rotate(25.000000) translate(-17.000000, -17.352941) "></path>
            <path d="M8.14910645,10.1784733 C23.0530557,10.2635011 29.788923,17.8384943 28.3567084,32.9034528 C28.6600396,33.5745319 6.64623702,36.0603231 7.62853753,10.8953361 C7.68347398,10.8634409 7.6768386,10.619355 7.60863141,10.1630783 L8.14910645,10.1784733 Z" id="Path-60" transform="translate(18.070833, 21.729746) scale(-1, -1) rotate(25.000000) translate(-18.070833, -21.729746) "></path>
            <polyline id="Path-62" transform="translate(16.657719, 17.469119) scale(-1, -1) rotate(25.000000) translate(-16.657719, -17.469119) " points="11.0509785 22.8843065 21.3395839 22.4645579 22.2644601 12.0539311"></polyline>
            <polyline id="Path-64" transform="translate(17.758585, 21.181028) scale(-1, -1) rotate(25.000000) translate(-17.758585, -21.181028) " points="11.411421 26.6446972 22.9516198 26.3935867 24.105749 15.7173598"></polyline>
            <polyline id="Path-66" transform="translate(18.799579, 24.554490) scale(-1, -1) rotate(25.000000) translate(-18.799579, -24.554490) " points="12.600639 29.8480758 23.8312253 29.4046353 24.9985183 19.2609044"></polyline>
            <polyline id="Path-68" transform="translate(19.663485, 27.311836) scale(-1, -1) rotate(25.000000) translate(-19.663485, -27.311836) " points="14.4759224 32.041415 24.2870606 32.4327871 24.8510482 22.1908845"></polyline>
            <polyline id="Path-70" transform="translate(20.915770, 31.885718) scale(-1, -1) rotate(25.000000) translate(-20.915770, -31.885718) " points="17.4925803 34.9539019 24.1379898 34.6447285 24.3389601 28.8175332"></polyline>
            <polyline id="Path-71" transform="translate(21.361396, 33.508468) scale(-1, -1) rotate(25.000000) translate(-21.361396, -33.508468) " points="18.8411997 35.3253556 23.8815917 35.5957121 23.7053087 31.4212231"></polyline>
            <polyline id="Path-71-Copy" transform="translate(21.861203, 35.509711) scale(-1, -1) rotate(25.000000) translate(-21.861203, -35.509711) " points="20.4632979 36.3422749 23.2591073 36.5314988 23.0533329 34.4879238"></polyline>
            <polyline id="Path-73" transform="translate(20.224656, 29.939704) scale(-1, -1) rotate(25.000000) translate(-20.224656, -29.939704) " points="15.9758692 34.0681344 24.0803517 33.9631919 24.4734436 25.8112741"></polyline>
        </g>
        <g id="Group-15-Copy-9" transform="translate(1044.160799, 292.175890) rotate(120.000000) translate(-1044.160799, -292.175890) translate(1019.660799, 259.675890)" fill="#002A02">
            <g id="Group-14" transform="translate(0.477241, 0.852886)">
                <path d="M4.29355144,62.6008733 L6.3258294,60.9047526 L5.28964519,29.7016276 C-1.16039593,43.5739337 -1.71169116,54.3568898 3.6357595,62.0504962 C3.58497825,61.9804531 3.80424223,62.1639121 4.29355144,62.6008733 Z" id="Path-17"></path>
                <path d="M9.27309503,57.7549682 L14.0136378,51.1068001 L10.8498837,21.5701621 C8.45494124,23.6939049 7.25747003,25.1983051 7.25747003,26.0833626 C7.25747003,26.96842 7.92934503,37.5256219 9.27309503,57.7549682 Z" id="Path-18"></path>
                <path d="M8.5082924,62.6008733 L8.5082924,63.8247419 C20.4032348,59.9725508 28.4267751,55.2764224 32.5789133,49.7363569 C32.517544,49.7172526 15.8420712,61.6811535 9.19476443,62.1410134 C9.22046345,61.9826082 8.99163943,61.9826082 8.5082924,62.1410134 L8.5082924,62.6008733 Z" id="Path-19"></path>
                <path d="M9.51456295,60.6787289 C15.7269396,58.3931686 24.940447,52.9877268 37.1550852,44.4624035 C36.899123,44.406369 41.4410638,39.9756039 42.7612735,35.0141276 C42.6462447,35.2746341 20.5052085,50.6415522 14.7624042,52.9580932 C14.6665983,53.0026334 12.9173179,55.5761786 9.51456295,60.6787289 Z" id="Path-20"></path>
                <path d="M15.8340531,50.8236643 L42.2919067,33.8013044 C43.884012,31.674688 44.9707718,29.1992031 45.5521863,26.3748496 C45.4935926,26.4007117 31.4384939,37.9018122 21.3403236,43.8190845 C21.3855539,43.7802914 19.5501304,46.1151513 15.8340531,50.8236643 Z" id="Path-21"></path>
                <path d="M23.6655704,39.6625651 C33.5439809,34.4154387 40.9105094,29.22291 45.7651558,24.0849789 C45.5930752,24.2641276 46.7194355,21.5946772 46.7194355,19.0095168 C46.6895218,19.001466 34.0790675,29.9982332 27.3113352,33.470216 C27.2399947,33.4754243 26.0247398,35.5395407 23.6655704,39.6625651 Z" id="Path-22"></path>
                <path d="M16.3984034,46.5604638 L21.0439626,40.5246341 C17.8901797,24.1844761 16.1535432,16.014397 15.8340531,16.014397 C15.3548179,16.014397 12.7523302,17.4408669 12.7523302,19.0094207 C12.7523302,20.0551233 13.967688,29.2388044 16.3984034,46.5604638 Z" id="Path-23"></path>
                <path d="M22.8693121,37.4152591 L26.6483006,30.2277591 L21.0439626,11.6795371 C18.7645571,12.3636248 17.6248544,13.515744 17.6248544,15.1358949 C17.6203372,14.998323 19.3684898,22.4247778 22.8693121,37.4152591 Z" id="Path-24"></path>
                <path d="M28.3330251,27.9249574 L31.7737118,21.5701621 L26.1379182,8.19462333 C24.1701962,9.04196528 23.1863352,9.83461973 23.1863352,10.5725867 C23.1863352,11.3105536 24.9018985,17.0946772 28.3330251,27.9249574 Z" id="Path-25"></path>
                <path d="M28.9568944,31.2874304 L46.7194355,17.2986104 C46.9902482,16.3477925 47.1256545,15.6760073 47.1256545,15.2832548 C47.1256545,14.0921628 46.7194355,13.3075005 46.7194355,13.3075005 C46.7194355,13.3075005 42.0059281,16.9101406 32.5789133,24.1154207 L28.9568944,30.4882656 L28.9568944,31.2874304 Z" id="Path-26"></path>
                <path d="M34.1248631,21.1011427 L46.7194355,11.6795371 C47.1277414,10.3460767 46.9428113,9.41650525 46.1646452,8.89082278 C46.1432636,8.8189837 42.9078607,11.1935084 36.4584363,16.014397 L34.1248631,20.1248496 L34.1248631,21.1011427 Z" id="Path-27"></path>
                <path d="M33.0711008,19.0094207 L35.695484,13.3075005 L31.7737118,5.47129359 C29.5753154,5.39532376 28.4761172,6.01412764 28.4761172,7.32770522 C28.4214297,7.4157081 29.7890284,11.1202699 32.5789133,18.4413906 L33.0711008,19.0094207 Z" id="Path-28"></path>
                <path d="M37.8381649,13.3075005 L45.5521863,6.90960177 C46.0373837,5.54501844 45.6935309,4.73323683 44.5206279,4.47425695 C44.4612118,4.46635465 42.8119519,5.70647677 39.5728483,8.19462333 L37.8381649,12.2372421 L37.8381649,13.3075005 Z" id="Path-29"></path>
                <path d="M36.7896452,11.2363798 L39.0408787,6.08659531 L37.2349577,2.69812548 C35.1654676,2.80717172 33.9929758,3.39917825 33.7174824,4.47414507 C33.7456485,4.45608029 34.6328812,6.50568655 36.3791806,10.6229638 L36.7896452,11.2363798 Z" id="Path-30"></path>
                <path d="M39.9287283,6.37781298 L43.7866641,3.1877588 C43.7866641,1.6490521 43.2708652,0.588391286 42.2392674,0.00577634388 C42.0054141,-0.0922840009 39.0408787,1.08039919 39.0408787,1.83363195 C39.0408787,2.33578712 39.3368286,3.42630436 39.9287283,5.10518367 L39.9287283,6.37781298 Z" id="Path-31"></path>
            </g>
        </g>
        <g id="Group-15-Copy-10" transform="translate(1010.160799, 287.675890) rotate(155.000000) translate(-1010.160799, -287.675890) translate(995.660799, 268.675890)" fill="#002A02">
            <g id="Group-14" transform="translate(0.240381, 0.870835)">
                <path d="M2.50457167,36.1911299 L3.69006715,35.2105601 L3.08562636,17.1712535 C-0.676897624,25.1911804 -0.998486508,31.4250769 2.12085971,35.8729431 C2.09123731,35.8324494 2.2191413,35.9385117 2.50457167,36.1911299 Z" id="Path-17"></path>
                <path d="M5.40930543,33.389591 L8.17462204,29.5461188 L6.32909881,12.47025 C4.93204906,13.6980388 4.23352418,14.5677701 4.23352418,15.079444 C4.23352418,15.5911178 4.62545127,21.6945002 5.40930543,33.389591 Z" id="Path-18"></path>
                <path d="M4.96317056,36.1911299 L4.96317056,36.8986789 C11.901887,34.6716309 16.5822855,31.9566817 19.0043661,28.7538313 C18.9685674,28.7427867 9.24120819,35.6594169 5.36361259,35.9252734 C5.37860368,35.8336954 5.245123,35.8336954 4.96317056,35.9252734 L4.96317056,36.1911299 Z" id="Path-19"></path>
                <path d="M5.55016172,35.0798902 C9.1740481,33.7585506 14.5485941,30.6335295 21.6737997,25.704827 C21.5244884,25.6724321 24.1739539,23.110896 24.9440762,20.2425425 C24.8769761,20.3931478 11.9613716,29.2771474 8.61140247,30.6163976 C8.55551568,30.6421474 7.5351021,32.1299783 5.55016172,35.0798902 Z" id="Path-20"></path>
                <path d="M9.23653097,29.3824309 L24.6702789,19.5413791 C25.599007,18.311929 26.2329502,16.8807893 26.5721087,15.2479599 C26.537929,15.2629114 18.3391214,21.9119852 12.4485221,25.3329082 C12.4749064,25.310481 11.4042427,26.6603219 9.23653097,29.3824309 Z" id="Path-21"></path>
                <path d="M13.804916,22.9299205 C19.5673222,19.8964255 23.8644638,16.8944948 26.6963409,13.9241284 C26.5959605,14.0276988 27.253004,12.4844228 27.253004,10.9898769 C27.2355544,10.9852225 19.879456,17.3427286 15.9316122,19.3499686 C15.8899969,19.3529797 15.1810982,20.546297 13.804916,22.9299205 Z" id="Path-22"></path>
                <path d="M9.56573533,26.9177682 L12.2756449,23.4283041 C10.4359382,13.9816502 9.42290021,9.25832329 9.23653097,9.25832329 C8.9569771,9.25832329 7.4388593,10.0830012 7.4388593,10.9898214 C7.4388593,11.5943682 8.14781797,16.9036838 9.56573533,26.9177682 Z" id="Path-23"></path>
                <path d="M13.3404321,21.6306967 L15.544842,17.4754232 L12.2756449,6.7522324 C10.9459917,7.14772057 10.281165,7.81378951 10.281165,8.75043923 C10.27853,8.67090551 11.2982857,12.9643247 13.3404321,21.6306967 Z" id="Path-24"></path>
                <path d="M16.527598,16.144116 L18.5346652,12.47025 L15.247119,4.73751661 C14.0992811,5.22738618 13.5253622,5.68563953 13.5253622,6.11227668 C13.5253622,6.53891382 14.5261074,9.88286026 16.527598,16.144116 Z" id="Path-25"></path>
                <path d="M16.8915217,18.0880457 L27.253004,10.0007591 C27.4109781,9.45106755 27.4899651,9.06269174 27.4899651,8.83563168 C27.4899651,8.14703164 27.253004,7.69339872 27.253004,7.69339872 C27.253004,7.69339872 24.5034581,9.77617502 19.0043661,13.9417276 L16.8915217,17.6260285 L16.8915217,18.0880457 Z" id="Path-26"></path>
                <path d="M19.9061702,12.1990981 L27.253004,6.7522324 C27.4911825,5.98132559 27.3833066,5.4439171 26.9293764,5.14000692 C26.9169038,5.09847495 25.0295854,6.47124707 21.2674212,9.25832329 L19.9061702,11.6346787 L19.9061702,12.1990981 Z" id="Path-27"></path>
                <path d="M19.2914755,10.9898214 L20.8223657,7.69339872 L18.5346652,3.1630916 C17.2522673,3.11917155 16.6110684,3.47691754 16.6110684,4.23632958 C16.5791673,4.28720624 17.3769332,6.42890602 19.0043661,10.6614289 L19.2914755,10.9898214 Z" id="Path-28"></path>
                <path d="M22.0722629,7.69339872 L26.5721087,3.99461353 C26.8551405,3.20571379 26.6545597,2.73640254 25.9703663,2.5866798 C25.9357069,2.58211128 24.9736386,3.29905689 23.0841615,4.73751661 L22.0722629,7.07465557 L22.0722629,7.69339872 Z" id="Path-29"></path>
                <path d="M21.4606264,6.49603207 L22.7738459,3.51881291 L21.720392,1.55985379 C20.5131894,1.62289615 19.8292359,1.96514993 19.6685314,2.58661512 C19.6849616,2.57617142 20.202514,3.76110003 21.2211887,6.14140097 L21.4606264,6.49603207 Z" id="Path-30"></path>
                <path d="M23.2917581,3.68717313 L25.5422207,1.84292306 C25.5422207,0.953358248 25.241338,0.340163712 24.6395726,0.00333944881 C24.5031582,-0.053351688 22.7738459,0.624605781 22.7738459,1.06006847 C22.7738459,1.35037693 22.9464833,1.98083221 23.2917581,2.95143431 L23.2917581,3.68717313 Z" id="Path-31"></path>
            </g>
        </g>
        <path d="M981,291.760634 C981,291.760634 1004.49541,295.87374 1003.99203,270 C1003.97206,270.142506 981.982643,274.292004 981.491321,290.305756 C981.365302,291.296621 981,291.760634 981,291.760634 Z" id="Path-150-Copy-6" stroke="#D5D721" fill="#D5D721"></path>
        <path d="M1004.6608,153.382123 C1004.6608,153.382123 1032.24236,158.430025 1031.65144,126.67589 C1031.628,126.850784 1005.81434,131.94335 1005.23757,151.59659 C1005.08963,152.812652 1004.6608,153.382123 1004.6608,153.382123 Z" id="Path-150-Copy-7" stroke="#D5D721" fill="#D5D721"></path>
        <path d="M1070.6608,276.480045 C1070.6608,276.480045 1090.07005,279.845314 1089.65421,258.67589 C1089.63772,258.792486 1071.47255,262.18753 1071.06667,275.28969 C1070.96257,276.100398 1070.6608,276.480045 1070.6608,276.480045 Z" id="Path-150-Copy-8" stroke="#D5D721" fill="#D5D721" transform="translate(1080.160799, 267.675890) scale(1, -1) translate(-1080.160799, -267.675890) "></path>
        <path d="M828,220.804155 C828,220.804155 847.409249,224.169424 846.993412,203 C846.976921,203.116596 828.811748,206.51164 828.405874,219.6138 C828.301771,220.424508 828,220.804155 828,220.804155 Z" id="Path-150-Copy-9" stroke="#D5D721" fill="#D5D721" transform="translate(837.500000, 212.000000) scale(1, -1) rotate(-114.000000) translate(-837.500000, -212.000000) "></path>
        <path d="M1005.6608,408.567087 C1005.6608,408.567087 1018.94081,410.436681 1018.65629,398.67589 C1018.64501,398.740665 1006.21621,400.626801 1005.9385,407.905779 C1005.86727,408.356172 1005.6608,408.567087 1005.6608,408.567087 Z" id="Path-150-Copy-10" stroke="#D5D721" fill="#D5D721" transform="translate(1012.160799, 403.675890) scale(-1, -1) translate(-1012.160799, -403.675890) "></path>
        <path d="M1098.6608,538.567087 C1098.6608,538.567087 1111.94081,540.436681 1111.65629,528.67589 C1111.64501,528.740665 1099.21621,530.626801 1098.9385,537.905779 C1098.86727,538.356172 1098.6608,538.567087 1098.6608,538.567087 Z" id="Path-150-Copy-11" stroke="#D5D721" fill="#D5D721" transform="translate(1105.160799, 533.675890) scale(1, -1) translate(-1105.160799, -533.675890) "></path>
        <path d="M841.85646,194.409147 C846.679339,198.165173 975.059363,352.845581 1129.23274,217.850304 C1045.90991,132.587569 950.117811,124.77385 841.85646,194.409147 Z" id="Path-147-Copy-2" fill="#FFFFFF" transform="translate(985.544600, 210.242474) scale(-1, 1) rotate(-4.000000) translate(-985.544600, -210.242474) "></path>
        <text id="Your-plants-are-all" font-family="BalooThambi2-Regular, Baloo Thambi 2" font-size="20" font-weight="normal" line-spacing="27" fill="#012E05">
            <tspan x="921" y="194">Your plants are all </tspan>
            <tspan x="921" y="221">happy, nothing to </tspan>
            <tspan x="921" y="248">do here. </tspan>
        </text>
        <g id="Group-15-Copy-11" transform="translate(981.160799, 131.175890) scale(-1, -1) rotate(170.000000) translate(-981.160799, -131.175890) translate(956.660799, 98.675890)" fill="#002A02">
            <g id="Group-14" transform="translate(0.477241, 0.852886)">
                <path d="M4.29355144,62.6008733 L6.3258294,60.9047526 L5.28964519,29.7016276 C-1.16039593,43.5739337 -1.71169116,54.3568898 3.6357595,62.0504962 C3.58497825,61.9804531 3.80424223,62.1639121 4.29355144,62.6008733 Z" id="Path-17"></path>
                <path d="M9.27309503,57.7549682 L14.0136378,51.1068001 L10.8498837,21.5701621 C8.45494124,23.6939049 7.25747003,25.1983051 7.25747003,26.0833626 C7.25747003,26.96842 7.92934503,37.5256219 9.27309503,57.7549682 Z" id="Path-18"></path>
                <path d="M8.5082924,62.6008733 L8.5082924,63.8247419 C20.4032348,59.9725508 28.4267751,55.2764224 32.5789133,49.7363569 C32.517544,49.7172526 15.8420712,61.6811535 9.19476443,62.1410134 C9.22046345,61.9826082 8.99163943,61.9826082 8.5082924,62.1410134 L8.5082924,62.6008733 Z" id="Path-19"></path>
                <path d="M9.51456295,60.6787289 C15.7269396,58.3931686 24.940447,52.9877268 37.1550852,44.4624035 C36.899123,44.406369 41.4410638,39.9756039 42.7612735,35.0141276 C42.6462447,35.2746341 20.5052085,50.6415522 14.7624042,52.9580932 C14.6665983,53.0026334 12.9173179,55.5761786 9.51456295,60.6787289 Z" id="Path-20"></path>
                <path d="M15.8340531,50.8236643 L42.2919067,33.8013044 C43.884012,31.674688 44.9707718,29.1992031 45.5521863,26.3748496 C45.4935926,26.4007117 31.4384939,37.9018122 21.3403236,43.8190845 C21.3855539,43.7802914 19.5501304,46.1151513 15.8340531,50.8236643 Z" id="Path-21"></path>
                <path d="M23.6655704,39.6625651 C33.5439809,34.4154387 40.9105094,29.22291 45.7651558,24.0849789 C45.5930752,24.2641276 46.7194355,21.5946772 46.7194355,19.0095168 C46.6895218,19.001466 34.0790675,29.9982332 27.3113352,33.470216 C27.2399947,33.4754243 26.0247398,35.5395407 23.6655704,39.6625651 Z" id="Path-22"></path>
                <path d="M16.3984034,46.5604638 L21.0439626,40.5246341 C17.8901797,24.1844761 16.1535432,16.014397 15.8340531,16.014397 C15.3548179,16.014397 12.7523302,17.4408669 12.7523302,19.0094207 C12.7523302,20.0551233 13.967688,29.2388044 16.3984034,46.5604638 Z" id="Path-23"></path>
                <path d="M22.8693121,37.4152591 L26.6483006,30.2277591 L21.0439626,11.6795371 C18.7645571,12.3636248 17.6248544,13.515744 17.6248544,15.1358949 C17.6203372,14.998323 19.3684898,22.4247778 22.8693121,37.4152591 Z" id="Path-24"></path>
                <path d="M28.3330251,27.9249574 L31.7737118,21.5701621 L26.1379182,8.19462333 C24.1701962,9.04196528 23.1863352,9.83461973 23.1863352,10.5725867 C23.1863352,11.3105536 24.9018985,17.0946772 28.3330251,27.9249574 Z" id="Path-25"></path>
                <path d="M28.9568944,31.2874304 L46.7194355,17.2986104 C46.9902482,16.3477925 47.1256545,15.6760073 47.1256545,15.2832548 C47.1256545,14.0921628 46.7194355,13.3075005 46.7194355,13.3075005 C46.7194355,13.3075005 42.0059281,16.9101406 32.5789133,24.1154207 L28.9568944,30.4882656 L28.9568944,31.2874304 Z" id="Path-26"></path>
                <path d="M34.1248631,21.1011427 L46.7194355,11.6795371 C47.1277414,10.3460767 46.9428113,9.41650525 46.1646452,8.89082278 C46.1432636,8.8189837 42.9078607,11.1935084 36.4584363,16.014397 L34.1248631,20.1248496 L34.1248631,21.1011427 Z" id="Path-27"></path>
                <path d="M33.0711008,19.0094207 L35.695484,13.3075005 L31.7737118,5.47129359 C29.5753154,5.39532376 28.4761172,6.01412764 28.4761172,7.32770522 C28.4214297,7.4157081 29.7890284,11.1202699 32.5789133,18.4413906 L33.0711008,19.0094207 Z" id="Path-28"></path>
                <path d="M37.8381649,13.3075005 L45.5521863,6.90960177 C46.0373837,5.54501844 45.6935309,4.73323683 44.5206279,4.47425695 C44.4612118,4.46635465 42.8119519,5.70647677 39.5728483,8.19462333 L37.8381649,12.2372421 L37.8381649,13.3075005 Z" id="Path-29"></path>
                <path d="M36.7896452,11.2363798 L39.0408787,6.08659531 L37.2349577,2.69812548 C35.1654676,2.80717172 33.9929758,3.39917825 33.7174824,4.47414507 C33.7456485,4.45608029 34.6328812,6.50568655 36.3791806,10.6229638 L36.7896452,11.2363798 Z" id="Path-30"></path>
                <path d="M39.9287283,6.37781298 L43.7866641,3.1877588 C43.7866641,1.6490521 43.2708652,0.588391286 42.2392674,0.00577634388 C42.0054141,-0.0922840009 39.0408787,1.08039919 39.0408787,1.83363195 C39.0408787,2.33578712 39.3368286,3.42630436 39.9287283,5.10518367 L39.9287283,6.37781298 Z" id="Path-31"></path>
            </g>
        </g>
        <g id="Group-15-Copy-12" transform="translate(945.160799, 140.175890) scale(-1, -1) rotate(120.000000) translate(-945.160799, -140.175890) translate(926.660799, 115.675890)" fill="#002A02">
            <g id="Group-14" transform="translate(0.522759, 0.147114)">
                <path d="M3.22016358,46.950655 L4.74437205,45.6785645 L3.96723389,22.2762207 C-0.870296945,32.6804503 -1.28376837,40.7676674 2.72681963,46.5378721 C2.68873369,46.4853398 2.85318167,46.6229341 3.22016358,46.950655 Z" id="Path-17"></path>
                <path d="M6.95482127,43.3162261 L10.5102283,38.3301 L8.13741276,16.1776216 C6.34120593,17.7704287 5.44310252,18.8987288 5.44310252,19.5625219 C5.44310252,20.226315 5.94700877,28.1442164 6.95482127,43.3162261 Z" id="Path-18"></path>
                <path d="M6.3812193,46.950655 L6.3812193,47.8685564 C15.3024261,44.9794131 21.3200813,41.4573168 24.434185,37.3022677 C24.388158,37.2879395 11.8815534,46.2608651 6.89607333,46.6057601 C6.91534759,46.4869562 6.74372958,46.4869562 6.3812193,46.6057601 L6.3812193,46.950655 Z" id="Path-19"></path>
                <path d="M7.13592222,45.5090467 C11.7952047,43.7948764 18.7053353,39.7407951 27.8663139,33.3468026 C27.6743422,33.3047768 31.0807978,29.9817029 32.0709551,26.2605957 C31.9846835,26.4559756 15.3789064,37.9811642 11.0718032,39.7185699 C10.9999487,39.751975 9.68798842,41.682134 7.13592222,45.5090467 Z" id="Path-20"></path>
                <path d="M11.8755398,38.1177482 L31.71893,25.3509783 C32.913009,23.756016 33.7280789,21.8994023 34.1641397,19.7811372 C34.1201944,19.8005338 23.5788704,28.4263591 16.0052427,32.8643134 C16.0391654,32.8352186 14.6625978,34.5863635 11.8755398,38.1177482 Z" id="Path-21"></path>
                <path d="M17.7491778,29.7469239 C25.1579857,25.811579 30.682882,21.9171825 34.3238668,18.0637342 C34.1948064,18.1980957 35.0395766,16.1960079 35.0395766,14.2571376 C35.0171414,14.2510995 25.5593006,22.4986749 20.4835014,25.102662 C20.429996,25.1065682 19.5185548,26.6546555 17.7491778,29.7469239 Z" id="Path-22"></path>
                <path d="M12.2988026,34.9203479 L15.782972,30.3934756 C13.4176348,18.138357 12.1151574,12.0107978 11.8755398,12.0107978 C11.5161134,12.0107978 9.56424767,13.0806501 9.56424767,14.2570656 C9.56424767,15.0413425 10.475766,21.9291033 12.2988026,34.9203479 Z" id="Path-23"></path>
                <path d="M17.1519841,28.0614443 L19.9862255,22.6708193 L15.782972,8.75965284 C14.0734178,9.27271857 13.2186408,10.136808 13.2186408,11.3519212 C13.2152529,11.2487423 14.5263673,16.8185833 17.1519841,28.0614443 Z" id="Path-24"></path>
                <path d="M21.2497688,20.943718 L23.8302839,16.1776216 L19.6034387,6.14596749 C18.1276471,6.78147396 17.3897514,7.3759648 17.3897514,7.92944002 C17.3897514,8.48291523 18.6764239,12.8210079 21.2497688,20.943718 Z" id="Path-25"></path>
                <path d="M21.7176708,23.4655728 L35.0395766,12.9739578 C35.2426861,12.2608444 35.3442409,11.7570055 35.3442409,11.4624411 C35.3442409,10.5691221 35.0395766,9.98062536 35.0395766,9.98062536 C35.0395766,9.98062536 31.5044461,12.6826054 24.434185,18.0865656 L21.7176708,22.8661992 L21.7176708,23.4655728 Z" id="Path-26"></path>
                <path d="M25.5936473,15.825857 L35.0395766,8.75965284 C35.3458061,7.75955752 35.2071085,7.06237894 34.6234839,6.66811708 C34.6074477,6.61423777 32.1808955,8.39513134 27.3438272,12.0107978 L25.5936473,15.0936372 L25.5936473,15.825857 Z" id="Path-27"></path>
                <path d="M24.8033256,14.2570656 L26.771613,9.98062536 L23.8302839,4.10347019 C22.1814866,4.04649282 21.3570879,4.51059573 21.3570879,5.49577892 C21.3160723,5.56178107 22.3417713,8.34020241 24.434185,13.8310429 L24.8033256,14.2570656 Z" id="Path-28"></path>
                <path d="M28.3786237,9.98062536 L34.1641397,5.18220133 C34.5280378,4.15876383 34.2701482,3.54992762 33.3904709,3.35569271 C33.3459089,3.34976599 32.108964,4.27985758 29.6796362,6.14596749 L28.3786237,9.17793156 L28.3786237,9.98062536 Z" id="Path-29"></path>
                <path d="M27.5922339,8.42728484 L29.2806591,4.56494648 L27.9262183,2.02359411 C26.3741007,2.10537879 25.4947318,2.54938369 25.2881118,3.35560881 C25.3092364,3.34206022 25.9746609,4.87926491 27.2843854,7.96722288 L27.5922339,8.42728484 Z" id="Path-30"></path>
                <path d="M29.9465462,4.78335974 L32.8399981,2.3908191 C32.8399981,1.23678908 32.4531489,0.441293465 31.6794505,0.00433225791 C31.5040606,-0.0692130007 29.2806591,0.810299392 29.2806591,1.37522396 C29.2806591,1.75184034 29.5026214,2.56972827 29.9465462,3.82888775 L29.9465462,4.78335974 Z" id="Path-31"></path>
            </g>
        </g>
    </g>
</svg>