<?xml version="1.0" encoding="UTF-8"?>
<svg width="52px" height="52px" viewBox="0 0 52 52" version="1.1" xmlns="http://www.w3.org/2000/svg" xmlns:xlink="http://www.w3.org/1999/xlink">
    <!-- Generator: Sketch 61.2 (89653) - https://sketch.com -->
    <title>editicon</title>
    <desc>Created with Sketch.</desc>
    <g id="editicon" stroke="none" stroke-width="1" fill="none" fill-rule="evenodd">
        <path d="M49.5,26.25 C49.5,13.41 39.09,3 26.25,3 C13.409,3 3,13.41 3,26.25 C3,39.091 13.409,49.5 26.25,49.5 C39.09,49.5 49.5,39.091 49.5,26.25" id="Fill-1" fill="#FEFEFE"></path>
        <path d="M49.5,26.25 C49.5,13.41 39.09,3 26.25,3 C13.409,3 3,13.41 3,26.25 C3,39.091 13.409,49.5 26.25,49.5 C39.09,49.5 49.5,39.091 49.5,26.25 Z" id="Stroke-3" stroke="#002A02" stroke-width="3"></path>
        <path d="M29.722841,18 L34,22.3876666 L20.678834,36.2312363 L15.8177669,37.5185986 C15.2838869,37.6599867 14.7364739,37.3418091 14.5950858,36.8079291 C14.5440834,36.6153445 14.5517671,36.4119151 14.6171517,36.2237265 L16.176337,31.7361113 L16.176337,31.7361113 L29.722841,18 Z" id="Path-172" fill="#002A02"></path>
        <path d="M35.3836952,21 L31,16.6529839 L33.0464395,14.6840315 C33.4406306,14.3047662 34.0664069,14.3126155 34.450961,14.7016488 L37.312989,17.5970131 C37.6949446,17.9834177 37.6984904,18.6041001 37.3209744,18.9948433 L35.3836952,21 L35.3836952,21 Z" id="Path-173" fill="#002A02"></path>
    </g>
</svg>