<?xml version="1.0" encoding="UTF-8"?>
<svg width="52px" height="52px" viewBox="0 0 52 52" version="1.1" xmlns="http://www.w3.org/2000/svg" xmlns:xlink="http://www.w3.org/1999/xlink">
    <!-- Generator: Sketch 61.2 (89653) - https://sketch.com -->
    <title>fertaliseicon</title>
    <desc>Created with Sketch.</desc>
    <g id="fertaliseicon" stroke="none" stroke-width="1" fill="none" fill-rule="evenodd">
        <path d="M17,15 L37,15 C30.5620117,9.52587891 24.7857132,8.83800928 19.6711046,12.9363911 C19.7911542,12.8411672 18.900786,13.5290368 17,15 Z" id="Path-171" fill="#622A11"></path>
        <g id="Group" transform="translate(13.000000, 15.000000)" fill="#FFFFFF" stroke="#012E05">
            <path d="M1.99637216,27 L25.306364,27 C25.3386564,26.6384669 25.36255,26.3682274 25.3780448,26.1892815 C26.2305606,16.3437638 26.2305606,8.47513021 24.9199219,4.0010843 C25.0623372,4.04564952 17.3584114,4.04564952 1.80814433,4.0010843 C0.730618558,13.8630291 0.730618558,21.1446239 1.80814433,25.8458688 C1.87470028,26.2259307 1.93744289,26.6106411 1.99637216,27 Z" id="Path-165-Copy"></path>
            <path d="M1.8983143,27.7941895 L25.3261719,27.7941895 C26.1278043,29.3101289 26.2272102,30.2273653 25.6243896,30.5458984 C25.0215691,30.8644316 17.1128773,30.9361655 1.8983143,30.7611001 C0.654070829,30.5282831 0.512184813,29.7177797 1.47265625,28.3295898 C1.47265625,28.3295898 1.61454227,28.151123 1.8983143,27.7941895 Z" id="Path-166-Copy-2"></path>
            <path d="M2.15507109,-4.609646e-13 L25.4446103,-4.609646e-13 C26.395033,1.77464166 26.5654471,2.82122907 25.9558523,3.13976224 C25.3462576,3.4582954 17.2940256,3.4582954 1.79915619,3.13976224 C0.715387871,3.01037322 0.569947394,2.31433105 1.36283476,1.05163574 C1.36283476,1.05163574 1.62691354,0.701090495 2.15507109,-4.609646e-13 Z" id="Path-166-Copy-3" transform="translate(13.586752, 1.689331) scale(-1, -1) translate(-13.586752, -1.689331) "></path>
        </g>
    </g>
</svg>