<?xml version="1.0" encoding="UTF-8"?>
<svg width="52px" height="52px" viewBox="0 0 52 52" version="1.1" xmlns="http://www.w3.org/2000/svg" xmlns:xlink="http://www.w3.org/1999/xlink">
    <!-- Generator: Sketch 61.2 (89653) - https://sketch.com -->
    <title>plantsiconActive</title>
    <desc>Created with Sketch.</desc>
    <g id="plantsiconActive" stroke="none" stroke-width="1" fill="none" fill-rule="evenodd">
        <path d="M18.5370095,30.6533708 C18.4482447,30.8550963 24.2762491,22.276745 15.2817341,14.8108878 C12.0018157,21.1718215 13.0869075,26.4526492 18.5370095,30.6533708 Z" id="Path-7-Copy-3" fill="#D5D721" transform="translate(16.872846, 22.733875) rotate(-44.000000) translate(-16.872846, -22.733875) "></path>
        <path d="M38.2475258,26.6123694 C38.158761,26.8140949 44.1908247,18.0985616 34.9922505,10.7698864 C30.8727671,17.3133657 31.9578589,22.5941934 38.2475258,26.6123694 Z" id="Path-7-Copy-4" fill="#D5D721" transform="translate(36.327321, 18.692847) rotate(64.000000) translate(-36.327321, -18.692847) "></path>
        <path d="M26.715553,40.3154297 C28.4952843,22.524861 21.9234333,14.491755 7,16.2161118 C7.39379058,19.1351684 10.2049463,30.4803227 26.1464584,30.4803227 C26.78192,30.4803227 26.78192,38.3583984 26.715553,39.9545898 C26.6713083,41.0187174 26.6713083,41.1389974 26.715553,40.3154297 Z" id="Path-121" stroke="#002A02" stroke-width="2"></path>
        <path d="M27.9640734,19.5 C32.4768754,12.5604248 38.3000488,10.1675212 45.4335938,12.3212891 C45.4448278,12.3217671 45.4951918,12.4754639 45.4951918,13.1008237 C45.4951918,15.6344975 44.3677809,23.6946486 31.2629395,27.2746582" id="Path" stroke="#002A02" stroke-width="2"></path>
    </g>
</svg>