<?xml version="1.0" encoding="utf-8"?>
<!-- Generator: Adobe Illustrator 18.1.1, SVG Export Plug-In . SVG Version: 6.00 Build 0)  -->
<svg version="1.1" id="Layer_1" xmlns="http://www.w3.org/2000/svg" xmlns:xlink="http://www.w3.org/1999/xlink" x="0px" y="0px"
	 viewBox="0 0 50.5 51.6" enable-background="new 0 0 50.5 51.6" xml:space="preserve">
<circle fill="none" stroke="#EC008C" stroke-width="7" stroke-miterlimit="10" cx="-131.6" cy="98.7" r="88.1"/>
<path fill="none" stroke="#EC008C" stroke-width="3" stroke-miterlimit="10" d="M-130,157.8L-130,157.8c-0.7,0-1.3-0.6-1.3-1.3V41.6
	c0-0.7,0.6-1.3,1.3-1.3l0,0c0.7,0,1.3,0.6,1.3,1.3v114.9C-128.7,157.2-129.3,157.8-130,157.8z"/>
<path fill="none" stroke="#EC008C" stroke-width="3" stroke-miterlimit="10" d="M-72.9,99.7L-72.9,99.7c0,0.7-0.6,1.3-1.3,1.3
	h-114.9c-0.7,0-1.3-0.6-1.3-1.3l0,0c0-0.7,0.6-1.3,1.3-1.3h114.9C-73.5,98.5-72.9,99-72.9,99.7z"/>
<circle fill="none" stroke="#EC008C" stroke-width="2" stroke-miterlimit="10" cx="25.4" cy="25.2" r="23.2"/>
<path fill="none" stroke="#EC008C" stroke-width="2" stroke-miterlimit="10" d="M25.5,41.4h-0.1c-0.2,0-0.3-0.1-0.3-0.3v-32
	c0-0.2,0.1-0.3,0.3-0.3h0.1c0.2,0,0.3,0.1,0.3,0.3v32C25.8,41.3,25.6,41.4,25.5,41.4z"/>
<path fill="none" stroke="#EC008C" stroke-width="2" stroke-miterlimit="10" d="M41.5,25.1v0.1c0,0.2-0.1,0.3-0.3,0.3h-32
	c-0.2,0-0.3-0.1-0.3-0.3v-0.1c0-0.2,0.1-0.3,0.3-0.3h32C41.3,24.8,41.5,24.9,41.5,25.1z"/>
</svg>
