<?xml version="1.0" encoding="UTF-8"?>
<svg width="52px" height="52px" viewBox="0 0 52 52" version="1.1" xmlns="http://www.w3.org/2000/svg" xmlns:xlink="http://www.w3.org/1999/xlink">
    <!-- Generator: Sketch 61.2 (89653) - https://sketch.com -->
    <title>scheduleiconActive</title>
    <desc>Created with Sketch.</desc>
    <g id="scheduleiconActive" stroke="none" stroke-width="1" fill="none" fill-rule="evenodd">
        <circle id="Oval" fill="#D5D721" cx="26.5" cy="26.5" r="12.5"></circle>
        <g id="Group-4-Copy-3" transform="translate(11.000000, 11.000000)">
            <circle id="Oval" stroke="#002A02" stroke-width="2" cx="15.5" cy="15.5" r="15.5"></circle>
            <g id="Group-3" transform="translate(13.000000, 8.000000)" fill="#002A02">
                <path d="M2.11538462,0 C2.81636141,-1.28767349e-16 3.38461538,0.568253971 3.38461538,1.26923077 L3.38461538,8.48076923 C3.38461538,9.18174603 2.81636141,9.75 2.11538462,9.75 C1.41440782,9.75 0.846153846,9.18174603 0.846153846,8.48076923 L0.846153846,1.26923077 C0.846153846,0.568253971 1.41440782,1.28767349e-16 2.11538462,0 Z" id="Combined-Shape"></path>
                <path d="M5.68522444,5.01362874 C6.47511325,5.2300723 7.03566807,5.93069705 7.07352064,6.74882866 L7.36561967,13.0621512 C7.3977247,13.7560577 6.86122863,14.3446063 6.16732216,14.3767113 C6.16279933,14.3769206 6.15827541,14.3771054 6.15375059,14.3772658 C5.44832962,14.4022728 4.8529092,13.8575512 4.8152053,13.1526948 L4.43378862,6.02229287 C4.40455478,5.47578038 4.82389199,5.00904576 5.37040448,4.97981193 C5.47647868,4.97413785 5.58277522,4.98555584 5.68522444,5.01362874 Z" id="Combined-Shape-Copy" transform="translate(5.899669, 9.678245) rotate(-69.000000) translate(-5.899669, -9.678245) "></path>
            </g>
        </g>
    </g>
</svg>